<svg width="480" height="475" viewBox="0 0 480 475" fill="none" xmlns="http://www.w3.org/2000/svg">
<g clip-path="url(#clip0_72_1038)">
<rect width="480" height="474.41" rx="22" fill="#ECECEC"/>
<g filter="url(#filter0_d_72_1038)">
<rect x="28" y="87" width="727" height="301" rx="8" fill="white" shape-rendering="crispEdges"/>
<rect x="28.5" y="87.5" width="726" height="300" rx="7.5" stroke="#E4E4E7" shape-rendering="crispEdges"/>
<g clip-path="url(#clip1_72_1038)">
<rect x="45" y="104" width="577.34" height="40" rx="6" fill="white"/>
<path d="M83.288 129.5V119.56H87.054C87.754 119.56 88.356 119.681 88.86 119.924C89.364 120.167 89.7513 120.517 90.022 120.974C90.302 121.422 90.442 121.954 90.442 122.57C90.442 123.018 90.3347 123.419 90.12 123.774C89.9147 124.119 89.6487 124.395 89.322 124.6C88.9953 124.805 88.6547 124.917 88.3 124.936L88.216 124.81C88.8227 124.81 89.2987 124.95 89.644 125.23C89.9987 125.51 90.204 125.958 90.26 126.574L90.54 129.5H89.322L89.07 126.7C89.0327 126.289 88.8833 125.986 88.622 125.79C88.37 125.594 87.9547 125.496 87.376 125.496H84.492V129.5H83.288ZM84.492 124.32H87.208C87.8147 124.32 88.2953 124.166 88.65 123.858C89.0047 123.55 89.182 123.111 89.182 122.542C89.182 121.963 89 121.52 88.636 121.212C88.272 120.895 87.7447 120.736 87.054 120.736H84.492V124.32ZM95.2602 129.668C94.5602 129.668 93.9535 129.509 93.4402 129.192C92.9362 128.875 92.5442 128.427 92.2642 127.848C91.9935 127.26 91.8582 126.574 91.8582 125.79C91.8582 125.006 91.9935 124.325 92.2642 123.746C92.5442 123.167 92.9315 122.719 93.4262 122.402C93.9302 122.075 94.5229 121.912 95.2042 121.912C95.8482 121.912 96.4175 122.066 96.9122 122.374C97.4069 122.673 97.7895 123.111 98.0602 123.69C98.3402 124.269 98.4802 124.973 98.4802 125.804V126.154H93.0902C93.1369 126.947 93.3469 127.545 93.7202 127.946C94.1029 128.347 94.6162 128.548 95.2602 128.548C95.7455 128.548 96.1422 128.436 96.4502 128.212C96.7675 127.979 96.9869 127.675 97.1082 127.302L98.3682 127.4C98.1722 128.063 97.7989 128.609 97.2482 129.038C96.7069 129.458 96.0442 129.668 95.2602 129.668ZM93.0902 125.118H97.1922C97.1362 124.399 96.9262 123.872 96.5622 123.536C96.2075 123.2 95.7549 123.032 95.2042 123.032C94.6349 123.032 94.1635 123.209 93.7902 123.564C93.4262 123.909 93.1929 124.427 93.0902 125.118ZM102.971 129.668C102.28 129.668 101.678 129.509 101.165 129.192C100.661 128.875 100.269 128.427 99.9891 127.848C99.7091 127.26 99.5691 126.574 99.5691 125.79C99.5691 125.006 99.7091 124.325 99.9891 123.746C100.269 123.167 100.661 122.719 101.165 122.402C101.678 122.075 102.28 121.912 102.971 121.912C103.54 121.912 104.044 122.015 104.483 122.22C104.931 122.416 105.295 122.705 105.575 123.088C105.855 123.471 106.037 123.937 106.121 124.488L104.889 124.572C104.805 124.077 104.59 123.699 104.245 123.438C103.9 123.167 103.475 123.032 102.971 123.032C102.29 123.032 101.758 123.279 101.375 123.774C100.992 124.259 100.801 124.931 100.801 125.79C100.801 126.649 100.992 127.325 101.375 127.82C101.758 128.305 102.29 128.548 102.971 128.548C103.475 128.548 103.9 128.408 104.245 128.128C104.59 127.848 104.805 127.428 104.889 126.868L106.121 126.952C106.037 127.503 105.855 127.983 105.575 128.394C105.295 128.795 104.931 129.108 104.483 129.332C104.044 129.556 103.54 129.668 102.971 129.668ZM107.579 129.5V119.56H108.755V123.718L108.615 123.69C108.708 123.279 108.867 122.943 109.091 122.682C109.315 122.421 109.59 122.229 109.917 122.108C110.244 121.977 110.603 121.912 110.995 121.912C111.527 121.912 111.975 122.033 112.339 122.276C112.712 122.509 112.992 122.841 113.179 123.27C113.375 123.69 113.473 124.175 113.473 124.726V129.5H112.297V125.062C112.297 124.343 112.166 123.811 111.905 123.466C111.653 123.121 111.266 122.948 110.743 122.948C110.146 122.948 109.665 123.13 109.301 123.494C108.937 123.858 108.755 124.385 108.755 125.076V129.5H107.579ZM118.448 129.668C117.748 129.668 117.141 129.509 116.628 129.192C116.124 128.875 115.732 128.427 115.452 127.848C115.181 127.26 115.046 126.574 115.046 125.79C115.046 125.006 115.181 124.325 115.452 123.746C115.732 123.167 116.119 122.719 116.614 122.402C117.118 122.075 117.71 121.912 118.392 121.912C119.036 121.912 119.605 122.066 120.1 122.374C120.594 122.673 120.977 123.111 121.248 123.69C121.528 124.269 121.668 124.973 121.668 125.804V126.154H116.278C116.324 126.947 116.534 127.545 116.908 127.946C117.29 128.347 117.804 128.548 118.448 128.548C118.933 128.548 119.33 128.436 119.638 128.212C119.955 127.979 120.174 127.675 120.296 127.302L121.556 127.4C121.36 128.063 120.986 128.609 120.436 129.038C119.894 129.458 119.232 129.668 118.448 129.668ZM116.278 125.118H120.38C120.324 124.399 120.114 123.872 119.75 123.536C119.395 123.2 118.942 123.032 118.392 123.032C117.822 123.032 117.351 123.209 116.978 123.564C116.614 123.909 116.38 124.427 116.278 125.118ZM123.261 129.5V122.08H124.297L124.353 123.956L124.241 123.914C124.334 123.279 124.535 122.817 124.843 122.528C125.16 122.229 125.58 122.08 126.103 122.08H126.831V123.2H126.117C125.743 123.2 125.431 123.27 125.179 123.41C124.936 123.541 124.749 123.741 124.619 124.012C124.497 124.273 124.437 124.609 124.437 125.02V129.5H123.261ZM130.903 129.668C130.212 129.668 129.61 129.509 129.097 129.192C128.593 128.875 128.201 128.427 127.921 127.848C127.641 127.26 127.501 126.574 127.501 125.79C127.501 125.006 127.641 124.325 127.921 123.746C128.201 123.167 128.593 122.719 129.097 122.402C129.61 122.075 130.212 121.912 130.903 121.912C131.472 121.912 131.976 122.015 132.415 122.22C132.863 122.416 133.227 122.705 133.507 123.088C133.787 123.471 133.969 123.937 134.053 124.488L132.821 124.572C132.737 124.077 132.522 123.699 132.177 123.438C131.831 123.167 131.407 123.032 130.903 123.032C130.221 123.032 129.689 123.279 129.307 123.774C128.924 124.259 128.733 124.931 128.733 125.79C128.733 126.649 128.924 127.325 129.307 127.82C129.689 128.305 130.221 128.548 130.903 128.548C131.407 128.548 131.831 128.408 132.177 128.128C132.522 127.848 132.737 127.428 132.821 126.868L134.053 126.952C133.969 127.503 133.787 127.983 133.507 128.394C133.227 128.795 132.863 129.108 132.415 129.332C131.976 129.556 131.472 129.668 130.903 129.668ZM135.511 129.5V119.56H136.687V123.718L136.547 123.69C136.64 123.279 136.799 122.943 137.023 122.682C137.247 122.421 137.522 122.229 137.849 122.108C138.175 121.977 138.535 121.912 138.927 121.912C139.459 121.912 139.907 122.033 140.271 122.276C140.644 122.509 140.924 122.841 141.111 123.27C141.307 123.69 141.405 124.175 141.405 124.726V129.5H140.229V125.062C140.229 124.343 140.098 123.811 139.837 123.466C139.585 123.121 139.197 122.948 138.675 122.948C138.077 122.948 137.597 123.13 137.233 123.494C136.869 123.858 136.687 124.385 136.687 125.076V129.5H135.511ZM146.379 129.668C145.679 129.668 145.073 129.509 144.559 129.192C144.055 128.875 143.663 128.427 143.383 127.848C143.113 127.26 142.977 126.574 142.977 125.79C142.977 125.006 143.113 124.325 143.383 123.746C143.663 123.167 144.051 122.719 144.545 122.402C145.049 122.075 145.642 121.912 146.323 121.912C146.967 121.912 147.537 122.066 148.031 122.374C148.526 122.673 148.909 123.111 149.179 123.69C149.459 124.269 149.599 124.973 149.599 125.804V126.154H144.209C144.256 126.947 144.466 127.545 144.839 127.946C145.222 128.347 145.735 128.548 146.379 128.548C146.865 128.548 147.261 128.436 147.569 128.212C147.887 127.979 148.106 127.675 148.227 127.302L149.487 127.4C149.291 128.063 148.918 128.609 148.367 129.038C147.826 129.458 147.163 129.668 146.379 129.668ZM144.209 125.118H148.311C148.255 124.399 148.045 123.872 147.681 123.536C147.327 123.2 146.874 123.032 146.323 123.032C145.754 123.032 145.283 123.209 144.909 123.564C144.545 123.909 144.312 124.427 144.209 125.118ZM151.192 129.5V122.08H152.228L152.284 123.956L152.172 123.914C152.266 123.279 152.466 122.817 152.774 122.528C153.092 122.229 153.512 122.08 154.034 122.08H154.762V123.2H154.048C153.675 123.2 153.362 123.27 153.11 123.41C152.868 123.541 152.681 123.741 152.55 124.012C152.429 124.273 152.368 124.609 152.368 125.02V129.5H151.192ZM162.629 129.668C161.985 129.668 161.425 129.509 160.949 129.192C160.482 128.875 160.123 128.427 159.871 127.848C159.619 127.269 159.493 126.583 159.493 125.79C159.493 124.997 159.619 124.311 159.871 123.732C160.123 123.153 160.482 122.705 160.949 122.388C161.425 122.071 161.985 121.912 162.629 121.912C163.124 121.912 163.576 122.019 163.987 122.234C164.398 122.439 164.706 122.733 164.911 123.116V119.56H166.087V129.5H165.023L164.981 128.38C164.776 128.781 164.463 129.099 164.043 129.332C163.623 129.556 163.152 129.668 162.629 129.668ZM162.867 128.548C163.306 128.548 163.674 128.436 163.973 128.212C164.281 127.988 164.514 127.671 164.673 127.26C164.832 126.84 164.911 126.35 164.911 125.79C164.911 125.211 164.832 124.717 164.673 124.306C164.514 123.895 164.281 123.583 163.973 123.368C163.674 123.144 163.306 123.032 162.867 123.032C162.214 123.032 161.691 123.279 161.299 123.774C160.916 124.259 160.725 124.931 160.725 125.79C160.725 126.639 160.916 127.311 161.299 127.806C161.691 128.301 162.214 128.548 162.867 128.548ZM170.188 129.668C169.423 129.668 168.812 129.491 168.354 129.136C167.906 128.781 167.682 128.287 167.682 127.652C167.682 127.017 167.869 126.518 168.242 126.154C168.616 125.79 169.208 125.533 170.02 125.384L172.652 124.894C172.652 124.269 172.503 123.802 172.204 123.494C171.915 123.186 171.476 123.032 170.888 123.032C170.375 123.032 169.969 123.149 169.67 123.382C169.372 123.606 169.166 123.933 169.054 124.362L167.808 124.264C167.948 123.564 168.284 122.999 168.816 122.57C169.358 122.131 170.048 121.912 170.888 121.912C171.84 121.912 172.568 122.183 173.072 122.724C173.576 123.256 173.828 123.993 173.828 124.936V128.002C173.828 128.17 173.856 128.291 173.912 128.366C173.978 128.431 174.08 128.464 174.22 128.464H174.514V129.5C174.477 129.509 174.416 129.514 174.332 129.514C174.248 129.523 174.16 129.528 174.066 129.528C173.73 129.528 173.455 129.477 173.24 129.374C173.035 129.262 172.886 129.094 172.792 128.87C172.699 128.637 172.652 128.333 172.652 127.96L172.792 127.988C172.727 128.305 172.568 128.595 172.316 128.856C172.064 129.108 171.752 129.309 171.378 129.458C171.005 129.598 170.608 129.668 170.188 129.668ZM170.3 128.632C170.795 128.632 171.215 128.539 171.56 128.352C171.915 128.156 172.186 127.895 172.372 127.568C172.559 127.232 172.652 126.859 172.652 126.448V125.916L170.244 126.364C169.74 126.457 169.39 126.602 169.194 126.798C169.008 126.985 168.914 127.232 168.914 127.54C168.914 127.885 169.036 128.156 169.278 128.352C169.53 128.539 169.871 128.632 170.3 128.632ZM175.843 129.5V122.08H176.921L176.963 123.97L176.823 123.844C176.916 123.405 177.079 123.046 177.313 122.766C177.546 122.477 177.826 122.262 178.153 122.122C178.489 121.982 178.848 121.912 179.231 121.912C179.8 121.912 180.267 122.038 180.631 122.29C181.004 122.542 181.279 122.883 181.457 123.312C181.643 123.732 181.737 124.203 181.737 124.726V129.5H180.561V125.062C180.561 124.605 180.505 124.222 180.393 123.914C180.29 123.597 180.122 123.359 179.889 123.2C179.655 123.032 179.352 122.948 178.979 122.948C178.409 122.948 177.938 123.13 177.565 123.494C177.201 123.849 177.019 124.371 177.019 125.062V129.5H175.843ZM186.515 129.668C185.853 129.668 185.288 129.561 184.821 129.346C184.364 129.131 184.005 128.837 183.743 128.464C183.491 128.081 183.347 127.647 183.309 127.162L184.541 127.078C184.616 127.526 184.807 127.885 185.115 128.156C185.423 128.417 185.89 128.548 186.515 128.548C187.019 128.548 187.421 128.469 187.719 128.31C188.027 128.142 188.181 127.876 188.181 127.512C188.181 127.316 188.135 127.153 188.041 127.022C187.948 126.891 187.766 126.779 187.495 126.686C187.225 126.583 186.823 126.485 186.291 126.392C185.582 126.261 185.022 126.103 184.611 125.916C184.21 125.72 183.921 125.482 183.743 125.202C183.575 124.913 183.491 124.572 183.491 124.18C183.491 123.517 183.734 122.976 184.219 122.556C184.705 122.127 185.395 121.912 186.291 121.912C186.898 121.912 187.407 122.024 187.817 122.248C188.237 122.463 188.564 122.752 188.797 123.116C189.04 123.471 189.199 123.863 189.273 124.292L188.041 124.376C187.985 124.115 187.883 123.886 187.733 123.69C187.584 123.485 187.388 123.326 187.145 123.214C186.903 123.093 186.613 123.032 186.277 123.032C185.745 123.032 185.353 123.135 185.101 123.34C184.849 123.545 184.723 123.807 184.723 124.124C184.723 124.367 184.779 124.567 184.891 124.726C185.013 124.875 185.204 125.001 185.465 125.104C185.727 125.197 186.077 125.281 186.515 125.356C187.271 125.487 187.859 125.645 188.279 125.832C188.699 126.019 188.993 126.247 189.161 126.518C189.329 126.789 189.413 127.12 189.413 127.512C189.413 127.969 189.283 128.361 189.021 128.688C188.769 129.005 188.424 129.248 187.985 129.416C187.556 129.584 187.066 129.668 186.515 129.668ZM196.111 129.5C195.682 129.5 195.332 129.388 195.061 129.164C194.79 128.94 194.655 128.585 194.655 128.1V119.56H195.831V128.002C195.831 128.151 195.868 128.268 195.943 128.352C196.027 128.427 196.144 128.464 196.293 128.464H196.937V129.5H196.111ZM201.204 129.668C200.504 129.668 199.897 129.509 199.384 129.192C198.88 128.875 198.488 128.427 198.208 127.848C197.937 127.26 197.802 126.574 197.802 125.79C197.802 125.006 197.937 124.325 198.208 123.746C198.488 123.167 198.875 122.719 199.37 122.402C199.874 122.075 200.466 121.912 201.148 121.912C201.792 121.912 202.361 122.066 202.856 122.374C203.35 122.673 203.733 123.111 204.004 123.69C204.284 124.269 204.424 124.973 204.424 125.804V126.154H199.034C199.08 126.947 199.29 127.545 199.664 127.946C200.046 128.347 200.56 128.548 201.204 128.548C201.689 128.548 202.086 128.436 202.394 128.212C202.711 127.979 202.93 127.675 203.052 127.302L204.312 127.4C204.116 128.063 203.742 128.609 203.192 129.038C202.65 129.458 201.988 129.668 201.204 129.668ZM199.034 125.118H203.136C203.08 124.399 202.87 123.872 202.506 123.536C202.151 123.2 201.698 123.032 201.148 123.032C200.578 123.032 200.107 123.209 199.734 123.564C199.37 123.909 199.136 124.427 199.034 125.118ZM208.718 129.668C208.056 129.668 207.491 129.561 207.024 129.346C206.567 129.131 206.208 128.837 205.946 128.464C205.694 128.081 205.55 127.647 205.512 127.162L206.744 127.078C206.819 127.526 207.01 127.885 207.318 128.156C207.626 128.417 208.093 128.548 208.718 128.548C209.222 128.548 209.624 128.469 209.922 128.31C210.23 128.142 210.384 127.876 210.384 127.512C210.384 127.316 210.338 127.153 210.244 127.022C210.151 126.891 209.969 126.779 209.698 126.686C209.428 126.583 209.026 126.485 208.494 126.392C207.785 126.261 207.225 126.103 206.814 125.916C206.413 125.72 206.124 125.482 205.946 125.202C205.778 124.913 205.694 124.572 205.694 124.18C205.694 123.517 205.937 122.976 206.422 122.556C206.908 122.127 207.598 121.912 208.494 121.912C209.101 121.912 209.61 122.024 210.02 122.248C210.44 122.463 210.767 122.752 211 123.116C211.243 123.471 211.402 123.863 211.476 124.292L210.244 124.376C210.188 124.115 210.086 123.886 209.936 123.69C209.787 123.485 209.591 123.326 209.348 123.214C209.106 123.093 208.816 123.032 208.48 123.032C207.948 123.032 207.556 123.135 207.304 123.34C207.052 123.545 206.926 123.807 206.926 124.124C206.926 124.367 206.982 124.567 207.094 124.726C207.216 124.875 207.407 125.001 207.668 125.104C207.93 125.197 208.28 125.281 208.718 125.356C209.474 125.487 210.062 125.645 210.482 125.832C210.902 126.019 211.196 126.247 211.364 126.518C211.532 126.789 211.616 127.12 211.616 127.512C211.616 127.969 211.486 128.361 211.224 128.688C210.972 129.005 210.627 129.248 210.188 129.416C209.759 129.584 209.269 129.668 208.718 129.668ZM219.49 129.668C218.846 129.668 218.286 129.509 217.81 129.192C217.344 128.875 216.984 128.427 216.732 127.848C216.48 127.269 216.354 126.583 216.354 125.79C216.354 124.997 216.48 124.311 216.732 123.732C216.984 123.153 217.344 122.705 217.81 122.388C218.286 122.071 218.846 121.912 219.49 121.912C219.985 121.912 220.438 122.019 220.848 122.234C221.259 122.439 221.567 122.733 221.772 123.116V119.56H222.948V129.5H221.884L221.842 128.38C221.637 128.781 221.324 129.099 220.904 129.332C220.484 129.556 220.013 129.668 219.49 129.668ZM219.728 128.548C220.167 128.548 220.536 128.436 220.834 128.212C221.142 127.988 221.376 127.671 221.534 127.26C221.693 126.84 221.772 126.35 221.772 125.79C221.772 125.211 221.693 124.717 221.534 124.306C221.376 123.895 221.142 123.583 220.834 123.368C220.536 123.144 220.167 123.032 219.728 123.032C219.075 123.032 218.552 123.279 218.16 123.774C217.778 124.259 217.586 124.931 217.586 125.79C217.586 126.639 217.778 127.311 218.16 127.806C218.552 128.301 219.075 128.548 219.728 128.548ZM227.946 129.668C227.264 129.668 226.667 129.509 226.154 129.192C225.64 128.875 225.244 128.427 224.964 127.848C224.684 127.26 224.544 126.574 224.544 125.79C224.544 124.997 224.684 124.311 224.964 123.732C225.244 123.153 225.64 122.705 226.154 122.388C226.667 122.071 227.264 121.912 227.946 121.912C228.627 121.912 229.22 122.071 229.724 122.388C230.237 122.705 230.634 123.153 230.914 123.732C231.194 124.311 231.334 124.997 231.334 125.79C231.334 126.574 231.194 127.26 230.914 127.848C230.634 128.427 230.237 128.875 229.724 129.192C229.22 129.509 228.627 129.668 227.946 129.668ZM227.946 128.548C228.627 128.548 229.154 128.305 229.528 127.82C229.91 127.325 230.102 126.649 230.102 125.79C230.102 124.931 229.91 124.259 229.528 123.774C229.154 123.279 228.627 123.032 227.946 123.032C227.264 123.032 226.732 123.279 226.35 123.774C225.967 124.259 225.776 124.931 225.776 125.79C225.776 126.649 225.967 127.325 226.35 127.82C226.732 128.305 227.264 128.548 227.946 128.548ZM235.834 129.668C235.144 129.668 234.542 129.509 234.028 129.192C233.524 128.875 233.132 128.427 232.852 127.848C232.572 127.26 232.432 126.574 232.432 125.79C232.432 125.006 232.572 124.325 232.852 123.746C233.132 123.167 233.524 122.719 234.028 122.402C234.542 122.075 235.144 121.912 235.834 121.912C236.404 121.912 236.908 122.015 237.346 122.22C237.794 122.416 238.158 122.705 238.438 123.088C238.718 123.471 238.9 123.937 238.984 124.488L237.752 124.572C237.668 124.077 237.454 123.699 237.108 123.438C236.763 123.167 236.338 123.032 235.834 123.032C235.153 123.032 234.621 123.279 234.238 123.774C233.856 124.259 233.664 124.931 233.664 125.79C233.664 126.649 233.856 127.325 234.238 127.82C234.621 128.305 235.153 128.548 235.834 128.548C236.338 128.548 236.763 128.408 237.108 128.128C237.454 127.848 237.668 127.428 237.752 126.868L238.984 126.952C238.9 127.503 238.718 127.983 238.438 128.394C238.158 128.795 237.794 129.108 237.346 129.332C236.908 129.556 236.404 129.668 235.834 129.668ZM242.878 129.668C242.141 129.668 241.548 129.421 241.1 128.926C240.662 128.422 240.442 127.731 240.442 126.854V122.08H241.618V126.532C241.618 127.251 241.744 127.783 241.996 128.128C242.258 128.464 242.654 128.632 243.186 128.632C243.774 128.632 244.236 128.445 244.572 128.072C244.908 127.689 245.076 127.167 245.076 126.504V122.08H246.252V129.5H245.132V127.666L245.314 127.764C245.165 128.371 244.88 128.842 244.46 129.178C244.04 129.505 243.513 129.668 242.878 129.668ZM248.495 129.5V122.08H249.573L249.615 123.956L249.447 123.9C249.531 123.489 249.676 123.139 249.881 122.85C250.096 122.551 250.357 122.323 250.665 122.164C250.973 121.996 251.314 121.912 251.687 121.912C252.331 121.912 252.854 122.089 253.255 122.444C253.666 122.799 253.922 123.293 254.025 123.928L253.801 123.914C253.876 123.485 254.011 123.125 254.207 122.836C254.412 122.537 254.674 122.309 254.991 122.15C255.308 121.991 255.672 121.912 256.083 121.912C256.615 121.912 257.063 122.024 257.427 122.248C257.791 122.463 258.066 122.78 258.253 123.2C258.44 123.62 258.533 124.129 258.533 124.726V129.5H257.357V124.978C257.357 124.306 257.226 123.802 256.965 123.466C256.704 123.121 256.316 122.948 255.803 122.948C255.458 122.948 255.154 123.032 254.893 123.2C254.641 123.368 254.445 123.611 254.305 123.928C254.165 124.236 254.095 124.614 254.095 125.062V129.5H252.919V125.062C252.919 124.399 252.802 123.881 252.569 123.508C252.336 123.135 251.944 122.948 251.393 122.948C251.048 122.948 250.744 123.032 250.483 123.2C250.231 123.368 250.03 123.611 249.881 123.928C249.741 124.245 249.671 124.623 249.671 125.062V129.5H248.495ZM263.506 129.668C262.806 129.668 262.2 129.509 261.686 129.192C261.182 128.875 260.79 128.427 260.51 127.848C260.24 127.26 260.104 126.574 260.104 125.79C260.104 125.006 260.24 124.325 260.51 123.746C260.79 123.167 261.178 122.719 261.672 122.402C262.176 122.075 262.769 121.912 263.45 121.912C264.094 121.912 264.664 122.066 265.158 122.374C265.653 122.673 266.036 123.111 266.306 123.69C266.586 124.269 266.726 124.973 266.726 125.804V126.154H261.336C261.383 126.947 261.593 127.545 261.966 127.946C262.349 128.347 262.862 128.548 263.506 128.548C263.992 128.548 264.388 128.436 264.696 128.212C265.014 127.979 265.233 127.675 265.354 127.302L266.614 127.4C266.418 128.063 266.045 128.609 265.494 129.038C264.953 129.458 264.29 129.668 263.506 129.668ZM261.336 125.118H265.438C265.382 124.399 265.172 123.872 264.808 123.536C264.454 123.2 264.001 123.032 263.45 123.032C262.881 123.032 262.41 123.209 262.036 123.564C261.672 123.909 261.439 124.427 261.336 125.118ZM268.319 129.5V122.08H269.397L269.439 123.97L269.299 123.844C269.393 123.405 269.556 123.046 269.789 122.766C270.023 122.477 270.303 122.262 270.629 122.122C270.965 121.982 271.325 121.912 271.707 121.912C272.277 121.912 272.743 122.038 273.107 122.29C273.481 122.542 273.756 122.883 273.933 123.312C274.12 123.732 274.213 124.203 274.213 124.726V129.5H273.037V125.062C273.037 124.605 272.981 124.222 272.869 123.914C272.767 123.597 272.599 123.359 272.365 123.2C272.132 123.032 271.829 122.948 271.455 122.948C270.886 122.948 270.415 123.13 270.041 123.494C269.677 123.849 269.495 124.371 269.495 125.062V129.5H268.319ZM278.609 129.5C277.937 129.5 277.438 129.346 277.111 129.038C276.794 128.73 276.635 128.249 276.635 127.596V120.344H277.811V127.568C277.811 127.904 277.886 128.137 278.035 128.268C278.185 128.399 278.413 128.464 278.721 128.464H279.785V129.5H278.609ZM275.543 123.116V122.08H279.785V123.116H275.543ZM283.859 129.668C283.196 129.668 282.632 129.561 282.165 129.346C281.708 129.131 281.348 128.837 281.087 128.464C280.835 128.081 280.69 127.647 280.653 127.162L281.885 127.078C281.96 127.526 282.151 127.885 282.459 128.156C282.767 128.417 283.234 128.548 283.859 128.548C284.363 128.548 284.764 128.469 285.063 128.31C285.371 128.142 285.525 127.876 285.525 127.512C285.525 127.316 285.478 127.153 285.385 127.022C285.292 126.891 285.11 126.779 284.839 126.686C284.568 126.583 284.167 126.485 283.635 126.392C282.926 126.261 282.366 126.103 281.955 125.916C281.554 125.72 281.264 125.482 281.087 125.202C280.919 124.913 280.835 124.572 280.835 124.18C280.835 123.517 281.078 122.976 281.563 122.556C282.048 122.127 282.739 121.912 283.635 121.912C284.242 121.912 284.75 122.024 285.161 122.248C285.581 122.463 285.908 122.752 286.141 123.116C286.384 123.471 286.542 123.863 286.617 124.292L285.385 124.376C285.329 124.115 285.226 123.886 285.077 123.69C284.928 123.485 284.732 123.326 284.489 123.214C284.246 123.093 283.957 123.032 283.621 123.032C283.089 123.032 282.697 123.135 282.445 123.34C282.193 123.545 282.067 123.807 282.067 124.124C282.067 124.367 282.123 124.567 282.235 124.726C282.356 124.875 282.548 125.001 282.809 125.104C283.07 125.197 283.42 125.281 283.859 125.356C284.615 125.487 285.203 125.645 285.623 125.832C286.043 126.019 286.337 126.247 286.505 126.518C286.673 126.789 286.757 127.12 286.757 127.512C286.757 127.969 286.626 128.361 286.365 128.688C286.113 129.005 285.768 129.248 285.329 129.416C284.9 129.584 284.41 129.668 283.859 129.668ZM287.995 129.5V127.918H289.577V129.5H287.995ZM290.811 129.5V127.918H292.393V129.5H290.811ZM293.628 129.5V127.918H295.21V129.5H293.628Z" fill="#71717A"/>
<path d="M64.3333 128.667C67.2789 128.667 69.6667 126.279 69.6667 123.333C69.6667 120.388 67.2789 118 64.3333 118C61.3878 118 59 120.388 59 123.333C59 126.279 61.3878 128.667 64.3333 128.667Z" stroke="#71717A" stroke-width="1.33333" stroke-linecap="round" stroke-linejoin="round"/>
<path d="M71 130L68.1334 127.133" stroke="#71717A" stroke-width="1.33333" stroke-linecap="round" stroke-linejoin="round"/>
</g>
<rect x="45.5" y="104.5" width="576.34" height="39" rx="5.5" stroke="#E4E4E7"/>
<rect x="45.3601" y="160.5" width="131" height="212" rx="5.5" fill="white"/>
<rect x="45.3601" y="160.5" width="131" height="212" rx="5.5" stroke="#E4E4E7"/>
<path d="M60.5268 182.667H69.8601C70.2138 182.667 70.5529 182.526 70.8029 182.276C71.053 182.026 71.1935 181.687 71.1935 181.333V172.667L67.8601 169.333H61.8601C61.5065 169.333 61.1674 169.474 60.9173 169.724C60.6673 169.974 60.5268 170.313 60.5268 170.667V173.333" stroke="#09090B" stroke-width="1.33333" stroke-linecap="round" stroke-linejoin="round"/>
<path d="M67.1934 169.333V172C67.1934 172.354 67.3339 172.693 67.5839 172.943C67.834 173.193 68.1731 173.333 68.5268 173.333H71.1934" stroke="#09090B" stroke-width="1.33333" stroke-linecap="round" stroke-linejoin="round"/>
<path d="M59.1934 176.667V176H63.1934V176.667" stroke="#09090B" stroke-width="1.33333" stroke-linecap="round" stroke-linejoin="round"/>
<path d="M61.1934 176V180" stroke="#09090B" stroke-width="1.33333" stroke-linecap="round" stroke-linejoin="round"/>
<path d="M60.5268 180H61.8601" stroke="#09090B" stroke-width="1.33333" stroke-linecap="round" stroke-linejoin="round"/>
<path d="M79.7202 181V171.06H86.1882V172.446H81.2322V175.344H86.0202V176.688H81.2322V179.614H86.3002V181H79.7202ZM87.2816 181L89.9836 177.192L87.3936 173.552H89.0456L90.8796 176.226L92.6576 173.552H94.3516L91.7896 177.22L94.4636 181H92.8116L90.8936 178.158L88.9616 181H87.2816ZM98.3226 181C97.6132 181 97.0906 180.837 96.7546 180.51C96.4186 180.183 96.2506 179.675 96.2506 178.984V171.802H97.7346V178.872C97.7346 179.217 97.8092 179.455 97.9586 179.586C98.1079 179.717 98.3366 179.782 98.6446 179.782H99.7086V181H98.3226ZM95.1166 174.77V173.552H99.7086V174.77H95.1166ZM104.07 181.168C103.342 181.168 102.712 181.009 102.18 180.692C101.657 180.375 101.251 179.922 100.962 179.334C100.682 178.746 100.542 178.06 100.542 177.276C100.542 176.492 100.682 175.811 100.962 175.232C101.251 174.644 101.657 174.191 102.18 173.874C102.702 173.547 103.318 173.384 104.028 173.384C104.7 173.384 105.292 173.543 105.806 173.86C106.319 174.168 106.716 174.616 106.996 175.204C107.285 175.792 107.43 176.501 107.43 177.332V177.71H102.082C102.119 178.438 102.31 178.984 102.656 179.348C103.01 179.712 103.486 179.894 104.084 179.894C104.522 179.894 104.886 179.791 105.176 179.586C105.465 179.381 105.666 179.105 105.778 178.76L107.318 178.858C107.122 179.549 106.734 180.109 106.156 180.538C105.586 180.958 104.891 181.168 104.07 181.168ZM102.082 176.59H105.862C105.815 175.927 105.624 175.437 105.288 175.12C104.961 174.803 104.541 174.644 104.028 174.644C103.496 174.644 103.057 174.812 102.712 175.148C102.376 175.475 102.166 175.955 102.082 176.59ZM108.933 181V173.552H110.291L110.347 175.54L110.165 175.442C110.249 174.957 110.408 174.565 110.641 174.266C110.875 173.967 111.159 173.748 111.495 173.608C111.831 173.459 112.195 173.384 112.587 173.384C113.147 173.384 113.609 173.51 113.973 173.762C114.347 174.005 114.627 174.341 114.813 174.77C115.009 175.19 115.107 175.671 115.107 176.212V181H113.623V176.66C113.623 176.221 113.577 175.853 113.483 175.554C113.39 175.255 113.236 175.027 113.021 174.868C112.807 174.709 112.527 174.63 112.181 174.63C111.659 174.63 111.234 174.803 110.907 175.148C110.581 175.493 110.417 175.997 110.417 176.66V181H108.933ZM119.911 181.168C119.211 181.168 118.618 181.061 118.133 180.846C117.657 180.631 117.288 180.337 117.027 179.964C116.765 179.581 116.616 179.143 116.579 178.648L118.105 178.578C118.179 178.989 118.357 179.315 118.637 179.558C118.917 179.801 119.341 179.922 119.911 179.922C120.377 179.922 120.746 179.847 121.017 179.698C121.287 179.549 121.423 179.311 121.423 178.984C121.423 178.807 121.376 178.657 121.283 178.536C121.199 178.405 121.031 178.298 120.779 178.214C120.527 178.121 120.153 178.032 119.659 177.948C118.921 177.808 118.343 177.645 117.923 177.458C117.503 177.271 117.204 177.033 117.027 176.744C116.849 176.455 116.761 176.105 116.761 175.694C116.761 175.013 117.013 174.457 117.517 174.028C118.03 173.599 118.767 173.384 119.729 173.384C120.373 173.384 120.914 173.496 121.353 173.72C121.791 173.935 122.132 174.229 122.375 174.602C122.627 174.966 122.785 175.377 122.851 175.834L121.325 175.918C121.278 175.657 121.185 175.433 121.045 175.246C120.914 175.05 120.737 174.901 120.513 174.798C120.289 174.686 120.023 174.63 119.715 174.63C119.239 174.63 118.884 174.723 118.651 174.91C118.417 175.097 118.301 175.339 118.301 175.638C118.301 175.862 118.352 176.044 118.455 176.184C118.567 176.324 118.744 176.441 118.987 176.534C119.229 176.618 119.551 176.693 119.953 176.758C120.727 176.889 121.334 177.052 121.773 177.248C122.211 177.435 122.519 177.668 122.697 177.948C122.874 178.228 122.963 178.569 122.963 178.97C122.963 179.437 122.832 179.833 122.571 180.16C122.309 180.487 121.95 180.739 121.493 180.916C121.035 181.084 120.508 181.168 119.911 181.168ZM124.465 181V173.552H125.949V181H124.465ZM124.437 172.474V170.99H125.977V172.474H124.437ZM130.976 181.168C130.267 181.168 129.646 181.009 129.114 180.692C128.582 180.375 128.171 179.922 127.882 179.334C127.593 178.746 127.448 178.06 127.448 177.276C127.448 176.483 127.593 175.797 127.882 175.218C128.171 174.639 128.582 174.191 129.114 173.874C129.646 173.547 130.267 173.384 130.976 173.384C131.685 173.384 132.306 173.547 132.838 173.874C133.37 174.191 133.781 174.639 134.07 175.218C134.359 175.797 134.504 176.483 134.504 177.276C134.504 178.06 134.359 178.746 134.07 179.334C133.781 179.922 133.37 180.375 132.838 180.692C132.306 181.009 131.685 181.168 130.976 181.168ZM130.976 179.88C131.611 179.88 132.101 179.651 132.446 179.194C132.791 178.727 132.964 178.088 132.964 177.276C132.964 176.464 132.791 175.829 132.446 175.372C132.101 174.905 131.611 174.672 130.976 174.672C130.351 174.672 129.861 174.905 129.506 175.372C129.161 175.829 128.988 176.464 128.988 177.276C128.988 178.088 129.161 178.727 129.506 179.194C129.861 179.651 130.351 179.88 130.976 179.88ZM136.004 181V173.552H137.362L137.418 175.54L137.236 175.442C137.32 174.957 137.478 174.565 137.712 174.266C137.945 173.967 138.23 173.748 138.566 173.608C138.902 173.459 139.266 173.384 139.658 173.384C140.218 173.384 140.68 173.51 141.044 173.762C141.417 174.005 141.697 174.341 141.884 174.77C142.08 175.19 142.178 175.671 142.178 176.212V181H140.694V176.66C140.694 176.221 140.647 175.853 140.554 175.554C140.46 175.255 140.306 175.027 140.092 174.868C139.877 174.709 139.597 174.63 139.252 174.63C138.729 174.63 138.304 174.803 137.978 175.148C137.651 175.493 137.488 175.997 137.488 176.66V181H136.004Z" fill="#09090B"/>
<path d="M78.4776 215V214.03H79.4276V215H78.4776ZM81.4024 215L79.7124 209.7H80.4324L81.8024 214.31L83.1524 209.7H83.8524L85.2024 214.31L86.5824 209.7H87.3024L85.6124 215H84.7924L83.5024 210.7L82.2224 215H81.4024ZM90.1152 215.12C89.6352 215.12 89.2152 215.007 88.8552 214.78C88.5018 214.553 88.2285 214.233 88.0352 213.82C87.8418 213.4 87.7452 212.91 87.7452 212.35C87.7452 211.783 87.8418 211.293 88.0352 210.88C88.2285 210.467 88.5018 210.147 88.8552 209.92C89.2152 209.693 89.6352 209.58 90.1152 209.58C90.5952 209.58 91.0118 209.693 91.3652 209.92C91.7185 210.147 91.9918 210.467 92.1852 210.88C92.3785 211.293 92.4752 211.783 92.4752 212.35C92.4752 212.91 92.3785 213.4 92.1852 213.82C91.9918 214.233 91.7185 214.553 91.3652 214.78C91.0118 215.007 90.5952 215.12 90.1152 215.12ZM90.1152 214.49C90.6352 214.49 91.0418 214.3 91.3352 213.92C91.6352 213.533 91.7852 213.01 91.7852 212.35C91.7852 211.69 91.6352 211.17 91.3352 210.79C91.0418 210.403 90.6352 210.21 90.1152 210.21C89.5952 210.21 89.1852 210.403 88.8852 210.79C88.5852 211.17 88.4352 211.69 88.4352 212.35C88.4352 213.01 88.5852 213.533 88.8852 213.92C89.1852 214.3 89.5952 214.49 90.1152 214.49ZM93.6618 215V209.7H94.2318L94.2718 211.15L94.1818 211.1C94.2685 210.627 94.4251 210.277 94.6518 210.05C94.8785 209.817 95.1918 209.7 95.5918 209.7H96.0518V210.34H95.5718C95.3051 210.34 95.0785 210.4 94.8918 210.52C94.7051 210.633 94.5618 210.797 94.4618 211.01C94.3685 211.223 94.3218 211.477 94.3218 211.77V215H93.6618ZM98.8033 215.12C98.3433 215.12 97.9466 215.007 97.6133 214.78C97.2799 214.553 97.0233 214.233 96.8433 213.82C96.6633 213.407 96.5733 212.917 96.5733 212.35C96.5733 211.783 96.6633 211.293 96.8433 210.88C97.0233 210.467 97.2799 210.147 97.6133 209.92C97.9466 209.693 98.3433 209.58 98.8033 209.58C99.1899 209.58 99.5333 209.677 99.8333 209.87C100.14 210.057 100.363 210.31 100.503 210.63V207.9H101.163V215H100.583L100.553 214.01C100.407 214.357 100.173 214.63 99.8533 214.83C99.5399 215.023 99.1899 215.12 98.8033 215.12ZM98.9133 214.49C99.2466 214.49 99.5299 214.403 99.7633 214.23C100.003 214.05 100.187 213.8 100.313 213.48C100.44 213.153 100.503 212.777 100.503 212.35C100.503 211.923 100.44 211.55 100.313 211.23C100.187 210.91 100.003 210.66 99.7633 210.48C99.5299 210.3 99.2466 210.21 98.9133 210.21C98.4133 210.21 98.0133 210.403 97.7133 210.79C97.4133 211.17 97.2633 211.69 97.2633 212.35C97.2633 213.003 97.4133 213.523 97.7133 213.91C98.0133 214.297 98.4133 214.49 98.9133 214.49Z" fill="#09090B"/>
<path d="M79.3028 299V298.03H80.2528V299H79.3028ZM81.528 299V293.7H82.128L82.158 295.13L82.068 295.05C82.108 294.757 82.2047 294.5 82.358 294.28C82.5113 294.06 82.7047 293.89 82.938 293.77C83.1713 293.643 83.4313 293.58 83.718 293.58C84.1513 293.58 84.5113 293.72 84.798 294C85.0847 294.273 85.258 294.653 85.318 295.14L85.178 295.12C85.2247 294.8 85.3213 294.527 85.468 294.3C85.6213 294.067 85.818 293.89 86.058 293.77C86.298 293.643 86.568 293.58 86.868 293.58C87.2213 293.58 87.5247 293.663 87.778 293.83C88.0313 293.99 88.2247 294.22 88.358 294.52C88.4913 294.82 88.558 295.18 88.558 295.6V299H87.898V295.8C87.898 295.273 87.7947 294.87 87.588 294.59C87.388 294.31 87.098 294.17 86.718 294.17C86.4513 294.17 86.2147 294.24 86.008 294.38C85.808 294.52 85.648 294.717 85.528 294.97C85.4147 295.223 85.358 295.52 85.358 295.86V299H84.698V295.83C84.698 295.317 84.6047 294.913 84.418 294.62C84.238 294.32 83.9513 294.17 83.558 294.17C83.2913 294.17 83.0547 294.24 82.848 294.38C82.6413 294.52 82.478 294.713 82.358 294.96C82.2447 295.207 82.188 295.497 82.188 295.83V299H81.528ZM90.0046 300.5V293.7H90.6046L90.6246 295.04L90.5146 294.99C90.6479 294.53 90.8779 294.18 91.2046 293.94C91.5312 293.7 91.9112 293.58 92.3446 293.58C92.8446 293.58 93.2579 293.707 93.5846 293.96C93.9179 294.207 94.1679 294.54 94.3346 294.96C94.5079 295.373 94.5946 295.837 94.5946 296.35C94.5946 296.863 94.5112 297.33 94.3446 297.75C94.1779 298.163 93.9279 298.497 93.5946 298.75C93.2612 298.997 92.8446 299.12 92.3446 299.12C92.0512 299.12 91.7779 299.063 91.5246 298.95C91.2779 298.83 91.0679 298.67 90.8946 298.47C90.7279 298.27 90.6146 298.043 90.5546 297.79L90.6646 297.66V300.5H90.0046ZM92.2946 298.49C92.7879 298.49 93.1779 298.3 93.4646 297.92C93.7512 297.54 93.8946 297.017 93.8946 296.35C93.8946 295.683 93.7512 295.16 93.4646 294.78C93.1779 294.4 92.7846 294.21 92.2846 294.21C91.9579 294.21 91.6712 294.297 91.4246 294.47C91.1846 294.637 90.9979 294.88 90.8646 295.2C90.7312 295.52 90.6646 295.903 90.6646 296.35C90.6646 296.797 90.7312 297.18 90.8646 297.5C90.9979 297.82 91.1879 298.067 91.4346 298.24C91.6812 298.407 91.9679 298.49 92.2946 298.49ZM99.0537 299V297.39H95.3837V296.78L99.0137 291.9H99.7337V296.73H100.624V297.39H99.7337V299H99.0537ZM96.2237 296.73H99.0537V292.96L96.2237 296.73Z" fill="#09090B"/>
<path d="M78.46 236V235.03H79.41V236H78.46ZM80.6852 237.5V230.7H81.2852L81.3052 232.04L81.1952 231.99C81.3286 231.53 81.5586 231.18 81.8852 230.94C82.2119 230.7 82.5919 230.58 83.0252 230.58C83.5252 230.58 83.9386 230.707 84.2652 230.96C84.5986 231.207 84.8486 231.54 85.0152 231.96C85.1886 232.373 85.2752 232.837 85.2752 233.35C85.2752 233.863 85.1919 234.33 85.0252 234.75C84.8586 235.163 84.6086 235.497 84.2752 235.75C83.9419 235.997 83.5252 236.12 83.0252 236.12C82.7319 236.12 82.4586 236.063 82.2052 235.95C81.9586 235.83 81.7486 235.67 81.5752 235.47C81.4086 235.27 81.2952 235.043 81.2352 234.79L81.3452 234.66V237.5H80.6852ZM82.9752 235.49C83.4686 235.49 83.8586 235.3 84.1452 234.92C84.4319 234.54 84.5752 234.017 84.5752 233.35C84.5752 232.683 84.4319 232.16 84.1452 231.78C83.8586 231.4 83.4652 231.21 82.9652 231.21C82.6386 231.21 82.3519 231.297 82.1052 231.47C81.8652 231.637 81.6786 231.88 81.5452 232.2C81.4119 232.52 81.3452 232.903 81.3452 233.35C81.3452 233.797 81.4119 234.18 81.5452 234.5C81.6786 234.82 81.8686 235.067 82.1152 235.24C82.3619 235.407 82.6486 235.49 82.9752 235.49ZM88.3267 236.12C87.8667 236.12 87.4701 236.007 87.1367 235.78C86.8034 235.553 86.5467 235.233 86.3667 234.82C86.1867 234.407 86.0967 233.917 86.0967 233.35C86.0967 232.783 86.1867 232.293 86.3667 231.88C86.5467 231.467 86.8034 231.147 87.1367 230.92C87.4701 230.693 87.8667 230.58 88.3267 230.58C88.7134 230.58 89.0567 230.677 89.3567 230.87C89.6634 231.057 89.8867 231.31 90.0267 231.63V228.9H90.6867V236H90.1067L90.0767 235.01C89.9301 235.357 89.6967 235.63 89.3767 235.83C89.0634 236.023 88.7134 236.12 88.3267 236.12ZM88.4367 235.49C88.7701 235.49 89.0534 235.403 89.2867 235.23C89.5267 235.05 89.7101 234.8 89.8367 234.48C89.9634 234.153 90.0267 233.777 90.0267 233.35C90.0267 232.923 89.9634 232.55 89.8367 232.23C89.7101 231.91 89.5267 231.66 89.2867 231.48C89.0534 231.3 88.7701 231.21 88.4367 231.21C87.9367 231.21 87.5367 231.403 87.2367 231.79C86.9367 232.17 86.7867 232.69 86.7867 233.35C86.7867 234.003 86.9367 234.523 87.2367 234.91C87.5367 235.297 87.9367 235.49 88.4367 235.49ZM92.5438 236V230.15C92.5438 229.77 92.6505 229.467 92.8638 229.24C93.0772 229.013 93.4072 228.9 93.8538 228.9H94.6138V229.49H93.9038C93.6638 229.49 93.4872 229.553 93.3738 229.68C93.2605 229.8 93.2038 229.973 93.2038 230.2V236H92.5438ZM91.7938 231.29V230.7H94.5638V231.29H91.7938Z" fill="#09090B"/>
<path d="M78.46 320V319.03H79.41V320H78.46ZM80.6852 320V314.7H81.2852L81.3152 316.13L81.2252 316.05C81.2652 315.757 81.3619 315.5 81.5152 315.28C81.6686 315.06 81.8619 314.89 82.0952 314.77C82.3286 314.643 82.5886 314.58 82.8752 314.58C83.3086 314.58 83.6686 314.72 83.9552 315C84.2419 315.273 84.4152 315.653 84.4752 316.14L84.3352 316.12C84.3819 315.8 84.4786 315.527 84.6252 315.3C84.7786 315.067 84.9752 314.89 85.2152 314.77C85.4552 314.643 85.7252 314.58 86.0252 314.58C86.3786 314.58 86.6819 314.663 86.9352 314.83C87.1886 314.99 87.3819 315.22 87.5152 315.52C87.6486 315.82 87.7152 316.18 87.7152 316.6V320H87.0552V316.8C87.0552 316.273 86.9519 315.87 86.7452 315.59C86.5452 315.31 86.2552 315.17 85.8752 315.17C85.6086 315.17 85.3719 315.24 85.1652 315.38C84.9652 315.52 84.8052 315.717 84.6852 315.97C84.5719 316.223 84.5152 316.52 84.5152 316.86V320H83.8552V316.83C83.8552 316.317 83.7619 315.913 83.5752 315.62C83.3952 315.32 83.1086 315.17 82.7152 315.17C82.4486 315.17 82.2119 315.24 82.0052 315.38C81.7986 315.52 81.6352 315.713 81.5152 315.96C81.4019 316.207 81.3452 316.497 81.3452 316.83V320H80.6852ZM89.2595 320V312.9H89.9195V317.72L92.7895 314.7H93.6695L91.4895 316.96L93.7995 320H92.9995L91.0495 317.4L89.9195 318.56V320H89.2595ZM95.9415 320L94.0015 314.7H94.7215L96.3615 319.33L98.0015 314.7H98.7215L96.7815 320H95.9415Z" fill="#09090B"/>
<path d="M78.46 257V256.03H79.41V257H78.46ZM80.3452 257L82.3052 254.3L80.4352 251.7H81.2052L82.7152 253.85L84.2052 251.7H84.9952L83.1352 254.31L85.0752 257H84.3052L82.7252 254.74L81.1252 257H80.3452ZM87.0654 257C86.7654 257 86.5287 256.927 86.3554 256.78C86.1821 256.627 86.0954 256.39 86.0954 256.07V249.9H86.7554V256.02C86.7554 256.147 86.7887 256.243 86.8554 256.31C86.9221 256.377 87.0221 256.41 87.1554 256.41H87.5754V257H87.0654ZM90.4949 257.12C90.0349 257.12 89.6416 257.047 89.3149 256.9C88.9949 256.747 88.7449 256.537 88.5649 256.27C88.3849 256.003 88.2816 255.703 88.2549 255.37L88.9449 255.32C88.9849 255.673 89.1316 255.957 89.3849 256.17C89.6449 256.383 90.0149 256.49 90.4949 256.49C90.9149 256.49 91.2416 256.42 91.4749 256.28C91.7083 256.14 91.8249 255.923 91.8249 255.63C91.8249 255.47 91.7883 255.337 91.7149 255.23C91.6483 255.117 91.5083 255.02 91.2949 254.94C91.0816 254.853 90.7616 254.773 90.3349 254.7C89.8349 254.607 89.4449 254.497 89.1649 254.37C88.8849 254.237 88.6883 254.073 88.5749 253.88C88.4616 253.68 88.4049 253.443 88.4049 253.17C88.4049 252.697 88.5749 252.313 88.9149 252.02C89.2549 251.727 89.7283 251.58 90.3349 251.58C90.7483 251.58 91.0983 251.657 91.3849 251.81C91.6783 251.963 91.9083 252.167 92.0749 252.42C92.2416 252.667 92.3516 252.94 92.4049 253.24L91.7149 253.3C91.6749 253.093 91.5983 252.91 91.4849 252.75C91.3716 252.583 91.2183 252.453 91.0249 252.36C90.8316 252.26 90.5983 252.21 90.3249 252.21C89.9249 252.21 89.6183 252.297 89.4049 252.47C89.1983 252.637 89.0949 252.86 89.0949 253.14C89.0949 253.333 89.1383 253.493 89.2249 253.62C89.3116 253.74 89.4549 253.84 89.6549 253.92C89.8549 253.993 90.1316 254.06 90.4849 254.12C91.0116 254.207 91.4216 254.317 91.7149 254.45C92.0149 254.577 92.2249 254.737 92.3449 254.93C92.4649 255.117 92.5249 255.347 92.5249 255.62C92.5249 255.94 92.4383 256.213 92.2649 256.44C92.0916 256.66 91.8516 256.83 91.5449 256.95C91.2449 257.063 90.8949 257.12 90.4949 257.12ZM92.9917 257L94.9517 254.3L93.0817 251.7H93.8517L95.3617 253.85L96.8517 251.7H97.6417L95.7817 254.31L97.7217 257H96.9517L95.3717 254.74L93.7717 257H92.9917Z" fill="#09090B"/>
<path d="M78.46 341V340.03H79.41V341H78.46ZM80.6852 341V335.7H81.2852L81.3152 337.13L81.2252 337.05C81.2652 336.757 81.3619 336.5 81.5152 336.28C81.6686 336.06 81.8619 335.89 82.0952 335.77C82.3286 335.643 82.5886 335.58 82.8752 335.58C83.3086 335.58 83.6686 335.72 83.9552 336C84.2419 336.273 84.4152 336.653 84.4752 337.14L84.3352 337.12C84.3819 336.8 84.4786 336.527 84.6252 336.3C84.7786 336.067 84.9752 335.89 85.2152 335.77C85.4552 335.643 85.7252 335.58 86.0252 335.58C86.3786 335.58 86.6819 335.663 86.9352 335.83C87.1886 335.99 87.3819 336.22 87.5152 336.52C87.6486 336.82 87.7152 337.18 87.7152 337.6V341H87.0552V337.8C87.0552 337.273 86.9519 336.87 86.7452 336.59C86.5452 336.31 86.2552 336.17 85.8752 336.17C85.6086 336.17 85.3719 336.24 85.1652 336.38C84.9652 336.52 84.8052 336.717 84.6852 336.97C84.5719 337.223 84.5152 337.52 84.5152 337.86V341H83.8552V337.83C83.8552 337.317 83.7619 336.913 83.5752 336.62C83.3952 336.32 83.1086 336.17 82.7152 336.17C82.4486 336.17 82.2119 336.24 82.0052 336.38C81.7986 336.52 81.6352 336.713 81.5152 336.96C81.4019 337.207 81.3452 337.497 81.3452 337.83V341H80.6852ZM89.1618 342.5V335.7H89.7618L89.7818 337.04L89.6718 336.99C89.8051 336.53 90.0351 336.18 90.3618 335.94C90.6885 335.7 91.0685 335.58 91.5018 335.58C92.0018 335.58 92.4151 335.707 92.7418 335.96C93.0751 336.207 93.3251 336.54 93.4918 336.96C93.6651 337.373 93.7518 337.837 93.7518 338.35C93.7518 338.863 93.6685 339.33 93.5018 339.75C93.3351 340.163 93.0851 340.497 92.7518 340.75C92.4185 340.997 92.0018 341.12 91.5018 341.12C91.2085 341.12 90.9351 341.063 90.6818 340.95C90.4351 340.83 90.2251 340.67 90.0518 340.47C89.8851 340.27 89.7718 340.043 89.7118 339.79L89.8218 339.66V342.5H89.1618ZM91.4518 340.49C91.9451 340.49 92.3351 340.3 92.6218 339.92C92.9085 339.54 93.0518 339.017 93.0518 338.35C93.0518 337.683 92.9085 337.16 92.6218 336.78C92.3351 336.4 91.9418 336.21 91.4418 336.21C91.1151 336.21 90.8285 336.297 90.5818 336.47C90.3418 336.637 90.1551 336.88 90.0218 337.2C89.8885 337.52 89.8218 337.903 89.8218 338.35C89.8218 338.797 89.8885 339.18 90.0218 339.5C90.1551 339.82 90.3451 340.067 90.5918 340.24C90.8385 340.407 91.1251 340.49 91.4518 340.49ZM97.2309 341.16C96.4709 341.16 95.8743 340.98 95.4409 340.62C95.0143 340.253 94.7809 339.78 94.7409 339.2L95.4409 339.15C95.4876 339.603 95.6709 339.94 95.9909 340.16C96.3176 340.38 96.7309 340.49 97.2309 340.49C97.5776 340.49 97.8876 340.44 98.1609 340.34C98.4409 340.233 98.6643 340.073 98.8309 339.86C98.9976 339.64 99.0809 339.36 99.0809 339.02C99.0809 338.533 98.9109 338.167 98.5709 337.92C98.2309 337.667 97.7809 337.54 97.2209 337.54H96.6209V336.88H97.2209C97.7009 336.88 98.0876 336.783 98.3809 336.59C98.6809 336.39 98.8309 336.08 98.8309 335.66C98.8309 335.26 98.6976 334.953 98.4309 334.74C98.1643 334.52 97.7809 334.41 97.2809 334.41C96.8076 334.41 96.4343 334.51 96.1609 334.71C95.8943 334.903 95.7343 335.173 95.6809 335.52L94.9609 335.47C95.0409 334.95 95.2776 334.533 95.6709 334.22C96.0709 333.9 96.6076 333.74 97.2809 333.74C97.7409 333.74 98.1409 333.817 98.4809 333.97C98.8209 334.123 99.0843 334.343 99.2709 334.63C99.4576 334.91 99.5509 335.243 99.5509 335.63C99.5509 336.077 99.4043 336.44 99.1109 336.72C98.8176 336.993 98.3943 337.177 97.8409 337.27V337.09C98.4409 337.163 98.9143 337.377 99.2609 337.73C99.6143 338.077 99.7909 338.51 99.7909 339.03C99.7909 339.47 99.6809 339.85 99.4609 340.17C99.2476 340.49 98.9476 340.737 98.5609 340.91C98.1743 341.077 97.7309 341.16 97.2309 341.16Z" fill="#09090B"/>
<path d="M78.46 278V277.03H79.41V278H78.46ZM80.3452 278L82.3052 275.3L80.4352 272.7H81.2052L82.7152 274.85L84.2052 272.7H84.9952L83.1352 275.31L85.0752 278H84.3052L82.7252 275.74L81.1252 278H80.3452ZM87.0654 278C86.7654 278 86.5287 277.927 86.3554 277.78C86.1821 277.627 86.0954 277.39 86.0954 277.07V270.9H86.7554V277.02C86.7554 277.147 86.7887 277.243 86.8554 277.31C86.9221 277.377 87.0221 277.41 87.1554 277.41H87.5754V278H87.0654ZM90.4949 278.12C90.0349 278.12 89.6416 278.047 89.3149 277.9C88.9949 277.747 88.7449 277.537 88.5649 277.27C88.3849 277.003 88.2816 276.703 88.2549 276.37L88.9449 276.32C88.9849 276.673 89.1316 276.957 89.3849 277.17C89.6449 277.383 90.0149 277.49 90.4949 277.49C90.9149 277.49 91.2416 277.42 91.4749 277.28C91.7083 277.14 91.8249 276.923 91.8249 276.63C91.8249 276.47 91.7883 276.337 91.7149 276.23C91.6483 276.117 91.5083 276.02 91.2949 275.94C91.0816 275.853 90.7616 275.773 90.3349 275.7C89.8349 275.607 89.4449 275.497 89.1649 275.37C88.8849 275.237 88.6883 275.073 88.5749 274.88C88.4616 274.68 88.4049 274.443 88.4049 274.17C88.4049 273.697 88.5749 273.313 88.9149 273.02C89.2549 272.727 89.7283 272.58 90.3349 272.58C90.7483 272.58 91.0983 272.657 91.3849 272.81C91.6783 272.963 91.9083 273.167 92.0749 273.42C92.2416 273.667 92.3516 273.94 92.4049 274.24L91.7149 274.3C91.6749 274.093 91.5983 273.91 91.4849 273.75C91.3716 273.583 91.2183 273.453 91.0249 273.36C90.8316 273.26 90.5983 273.21 90.3249 273.21C89.9249 273.21 89.6183 273.297 89.4049 273.47C89.1983 273.637 89.0949 273.86 89.0949 274.14C89.0949 274.333 89.1383 274.493 89.2249 274.62C89.3116 274.74 89.4549 274.84 89.6549 274.92C89.8549 274.993 90.1316 275.06 90.4849 275.12C91.0116 275.207 91.4216 275.317 91.7149 275.45C92.0149 275.577 92.2249 275.737 92.3449 275.93C92.4649 276.117 92.5249 276.347 92.5249 276.62C92.5249 276.94 92.4383 277.213 92.2649 277.44C92.0916 277.66 91.8516 277.83 91.5449 277.95C91.2449 278.063 90.8949 278.12 90.4949 278.12ZM92.9917 278L94.9517 275.3L93.0817 272.7H93.8517L95.3617 274.85L96.8517 272.7H97.6417L95.7817 275.31L97.7217 278H96.9517L95.3717 275.74L93.7717 278H92.9917Z" fill="#09090B"/>
<path d="M78.46 362V361.03H79.41V362H78.46ZM81.3848 362L79.6948 356.7H80.4148L81.7848 361.31L83.1348 356.7H83.8348L85.1848 361.31L86.5648 356.7H87.2848L85.5948 362H84.7748L83.4848 357.7L82.2048 362H81.3848ZM89.5169 362.12C88.9835 362.12 88.5569 361.993 88.2369 361.74C87.9169 361.48 87.7569 361.13 87.7569 360.69C87.7569 360.25 87.8969 359.903 88.1769 359.65C88.4569 359.397 88.8669 359.22 89.4069 359.12L91.3669 358.75C91.3669 358.223 91.2535 357.837 91.0269 357.59C90.8002 357.337 90.4569 357.21 89.9969 357.21C89.5902 357.21 89.2669 357.307 89.0269 357.5C88.7869 357.693 88.6269 357.967 88.5469 358.32L87.8469 358.26C87.9469 357.747 88.1802 357.34 88.5469 357.04C88.9202 356.733 89.4035 356.58 89.9969 356.58C90.6569 356.58 91.1602 356.767 91.5069 357.14C91.8535 357.513 92.0269 358.047 92.0269 358.74V360.95C92.0269 361.13 92.0535 361.253 92.1069 361.32C92.1669 361.38 92.2602 361.41 92.3869 361.41H92.5469V362C92.5202 362.007 92.4802 362.01 92.4269 362.01C92.3802 362.017 92.3302 362.02 92.2769 362.02C92.0702 362.02 91.8969 361.983 91.7569 361.91C91.6235 361.837 91.5235 361.717 91.4569 361.55C91.3969 361.383 91.3669 361.153 91.3669 360.86L91.4469 360.87C91.3869 361.103 91.2635 361.317 91.0769 361.51C90.8969 361.697 90.6702 361.847 90.3969 361.96C90.1235 362.067 89.8302 362.12 89.5169 362.12ZM89.5769 361.53C89.9435 361.53 90.2602 361.457 90.5269 361.31C90.7935 361.163 91.0002 360.967 91.1469 360.72C91.2935 360.467 91.3669 360.183 91.3669 359.87V359.34L89.5469 359.68C89.1669 359.753 88.8869 359.867 88.7069 360.02C88.5335 360.173 88.4469 360.377 88.4469 360.63C88.4469 360.917 88.5469 361.14 88.7469 361.3C88.9469 361.453 89.2235 361.53 89.5769 361.53ZM94.7208 362L92.7808 356.7H93.5008L95.1408 361.33L96.7808 356.7H97.5008L95.5608 362H94.7208Z" fill="#09090B"/>
<path d="M155 178L159 174L163 178" stroke="#09090B" stroke-width="1.33333" stroke-linecap="round" stroke-linejoin="round"/>
<rect x="58.5" y="204.5" width="15" height="15" rx="3.5" fill="#E6F3FF"/>
<rect x="58.5" y="204.5" width="15" height="15" rx="3.5" stroke="#3398FF"/>
<path d="M70 209L64.5 214.5L62 212" stroke="#3398FF" stroke-width="1.6666" stroke-linecap="round" stroke-linejoin="round"/>
<rect x="58.5" y="288.5" width="15" height="15" rx="3.5" fill="white"/>
<rect x="58.5" y="288.5" width="15" height="15" rx="3.5" stroke="#D0D5DD"/>
<rect x="58.5" y="225.5" width="15" height="15" rx="3.5" fill="white"/>
<rect x="58.5" y="225.5" width="15" height="15" rx="3.5" stroke="#D0D5DD"/>
<rect x="58.5" y="309.5" width="15" height="15" rx="3.5" fill="white"/>
<rect x="58.5" y="309.5" width="15" height="15" rx="3.5" stroke="#D0D5DD"/>
<rect x="58.5" y="246.5" width="15" height="15" rx="3.5" fill="white"/>
<rect x="58.5" y="246.5" width="15" height="15" rx="3.5" stroke="#D0D5DD"/>
<rect x="58.5" y="330.5" width="15" height="15" rx="3.5" fill="white"/>
<rect x="58.5" y="330.5" width="15" height="15" rx="3.5" stroke="#D0D5DD"/>
<rect x="58.5" y="267.5" width="15" height="15" rx="3.5" fill="white"/>
<rect x="58.5" y="267.5" width="15" height="15" rx="3.5" stroke="#D0D5DD"/>
<rect x="58.5" y="351.5" width="15" height="15" rx="3.5" fill="white"/>
<rect x="58.5" y="351.5" width="15" height="15" rx="3.5" stroke="#D0D5DD"/>
<rect x="185.22" y="160.5" width="161.88" height="31" rx="5.5" fill="white"/>
<rect x="185.22" y="160.5" width="161.88" height="31" rx="5.5" stroke="#E4E4E7"/>
<path d="M205.72 182.667C209.402 182.667 212.387 179.682 212.387 176C212.387 172.318 209.402 169.333 205.72 169.333C202.038 169.333 199.053 172.318 199.053 176C199.053 179.682 202.038 182.667 205.72 182.667Z" stroke="#09090B" stroke-width="1.33333" stroke-linecap="round" stroke-linejoin="round"/>
<path d="M205.72 172V176L208.387 177.333" stroke="#09090B" stroke-width="1.33333" stroke-linecap="round" stroke-linejoin="round"/>
<path d="M219.646 181V171.06H222.838C224.397 171.06 225.596 171.494 226.436 172.362C227.276 173.221 227.696 174.448 227.696 176.044C227.696 177.631 227.281 178.853 226.45 179.712C225.629 180.571 224.453 181 222.922 181H219.646ZM221.158 179.614H222.838C223.94 179.614 224.761 179.32 225.302 178.732C225.853 178.135 226.128 177.239 226.128 176.044C226.128 174.831 225.853 173.93 225.302 173.342C224.761 172.745 223.94 172.446 222.838 172.446H221.158V179.614ZM231.559 181.168C230.784 181.168 230.163 180.991 229.697 180.636C229.239 180.281 229.011 179.782 229.011 179.138C229.011 178.494 229.202 177.995 229.585 177.64C229.977 177.276 230.579 177.015 231.391 176.856L233.953 176.366C233.953 175.787 233.817 175.358 233.547 175.078C233.276 174.789 232.875 174.644 232.343 174.644C231.867 174.644 231.493 174.751 231.223 174.966C230.952 175.171 230.765 175.479 230.663 175.89L229.137 175.792C229.277 175.045 229.622 174.457 230.173 174.028C230.733 173.599 231.456 173.384 232.343 173.384C233.351 173.384 234.116 173.655 234.639 174.196C235.171 174.728 235.437 175.479 235.437 176.45V179.348C235.437 179.525 235.465 179.651 235.521 179.726C235.586 179.791 235.689 179.824 235.829 179.824H236.095V181C236.048 181.009 235.973 181.019 235.871 181.028C235.768 181.037 235.661 181.042 235.549 181.042C235.231 181.042 234.956 180.991 234.723 180.888C234.499 180.785 234.331 180.617 234.219 180.384C234.107 180.141 234.051 179.819 234.051 179.418L234.205 179.488C234.13 179.815 233.967 180.104 233.715 180.356C233.472 180.608 233.159 180.809 232.777 180.958C232.403 181.098 231.997 181.168 231.559 181.168ZM231.797 179.992C232.245 179.992 232.627 179.908 232.945 179.74C233.262 179.563 233.509 179.32 233.687 179.012C233.864 178.704 233.953 178.354 233.953 177.962V177.486L231.769 177.906C231.321 177.99 231.003 178.125 230.817 178.312C230.639 178.489 230.551 178.718 230.551 178.998C230.551 179.315 230.658 179.563 230.873 179.74C231.097 179.908 231.405 179.992 231.797 179.992ZM239.821 181C239.112 181 238.589 180.837 238.253 180.51C237.917 180.183 237.749 179.675 237.749 178.984V171.802H239.233V178.872C239.233 179.217 239.308 179.455 239.457 179.586C239.606 179.717 239.835 179.782 240.143 179.782H241.207V181H239.821ZM236.615 174.77V173.552H241.207V174.77H236.615ZM245.568 181.168C244.84 181.168 244.21 181.009 243.678 180.692C243.155 180.375 242.749 179.922 242.46 179.334C242.18 178.746 242.04 178.06 242.04 177.276C242.04 176.492 242.18 175.811 242.46 175.232C242.749 174.644 243.155 174.191 243.678 173.874C244.201 173.547 244.817 173.384 245.526 173.384C246.198 173.384 246.791 173.543 247.304 173.86C247.817 174.168 248.214 174.616 248.494 175.204C248.783 175.792 248.928 176.501 248.928 177.332V177.71H243.58C243.617 178.438 243.809 178.984 244.154 179.348C244.509 179.712 244.985 179.894 245.582 179.894C246.021 179.894 246.385 179.791 246.674 179.586C246.963 179.381 247.164 179.105 247.276 178.76L248.816 178.858C248.62 179.549 248.233 180.109 247.654 180.538C247.085 180.958 246.389 181.168 245.568 181.168ZM243.58 176.59H247.36C247.313 175.927 247.122 175.437 246.786 175.12C246.459 174.803 246.039 174.644 245.526 174.644C244.994 174.644 244.555 174.812 244.21 175.148C243.874 175.475 243.664 175.955 243.58 176.59ZM256.619 181.168C255.984 181.168 255.429 181.009 254.953 180.692C254.486 180.375 254.127 179.927 253.875 179.348C253.632 178.76 253.511 178.069 253.511 177.276C253.511 176.483 253.637 175.797 253.889 175.218C254.141 174.63 254.5 174.177 254.967 173.86C255.433 173.543 255.984 173.384 256.619 173.384C257.132 173.384 257.589 173.491 257.991 173.706C258.392 173.921 258.695 174.219 258.901 174.602V171.06H260.385V181H258.999L258.957 179.88C258.751 180.281 258.439 180.599 258.019 180.832C257.608 181.056 257.141 181.168 256.619 181.168ZM257.011 179.88C257.412 179.88 257.753 179.777 258.033 179.572C258.313 179.367 258.527 179.068 258.677 178.676C258.826 178.284 258.901 177.817 258.901 177.276C258.901 176.716 258.826 176.245 258.677 175.862C258.527 175.47 258.313 175.176 258.033 174.98C257.753 174.775 257.412 174.672 257.011 174.672C256.413 174.672 255.937 174.905 255.583 175.372C255.228 175.829 255.051 176.464 255.051 177.276C255.051 178.079 255.228 178.713 255.583 179.18C255.937 179.647 256.413 179.88 257.011 179.88ZM262.28 174.84L262.056 172.194V171.06H263.428V172.194L263.218 174.84H262.28ZM267.174 181.168C266.399 181.168 265.779 180.991 265.312 180.636C264.855 180.281 264.626 179.782 264.626 179.138C264.626 178.494 264.817 177.995 265.2 177.64C265.592 177.276 266.194 177.015 267.006 176.856L269.568 176.366C269.568 175.787 269.433 175.358 269.162 175.078C268.891 174.789 268.49 174.644 267.958 174.644C267.482 174.644 267.109 174.751 266.838 174.966C266.567 175.171 266.381 175.479 266.278 175.89L264.752 175.792C264.892 175.045 265.237 174.457 265.788 174.028C266.348 173.599 267.071 173.384 267.958 173.384C268.966 173.384 269.731 173.655 270.254 174.196C270.786 174.728 271.052 175.479 271.052 176.45V179.348C271.052 179.525 271.08 179.651 271.136 179.726C271.201 179.791 271.304 179.824 271.444 179.824H271.71V181C271.663 181.009 271.589 181.019 271.486 181.028C271.383 181.037 271.276 181.042 271.164 181.042C270.847 181.042 270.571 180.991 270.338 180.888C270.114 180.785 269.946 180.617 269.834 180.384C269.722 180.141 269.666 179.819 269.666 179.418L269.82 179.488C269.745 179.815 269.582 180.104 269.33 180.356C269.087 180.608 268.775 180.809 268.392 180.958C268.019 181.098 267.613 181.168 267.174 181.168ZM267.412 179.992C267.86 179.992 268.243 179.908 268.56 179.74C268.877 179.563 269.125 179.32 269.302 179.012C269.479 178.704 269.568 178.354 269.568 177.962V177.486L267.384 177.906C266.936 177.99 266.619 178.125 266.432 178.312C266.255 178.489 266.166 178.718 266.166 178.998C266.166 179.315 266.273 179.563 266.488 179.74C266.712 179.908 267.02 179.992 267.412 179.992ZM272.963 181V173.552H274.321L274.377 175.54L274.195 175.442C274.279 174.957 274.438 174.565 274.671 174.266C274.904 173.967 275.189 173.748 275.525 173.608C275.861 173.459 276.225 173.384 276.617 173.384C277.177 173.384 277.639 173.51 278.003 173.762C278.376 174.005 278.656 174.341 278.843 174.77C279.039 175.19 279.137 175.671 279.137 176.212V181H277.653V176.66C277.653 176.221 277.606 175.853 277.513 175.554C277.42 175.255 277.266 175.027 277.051 174.868C276.836 174.709 276.556 174.63 276.211 174.63C275.688 174.63 275.264 174.803 274.937 175.148C274.61 175.493 274.447 175.997 274.447 176.66V181H272.963ZM283.17 181.168C282.395 181.168 281.775 180.991 281.308 180.636C280.851 180.281 280.622 179.782 280.622 179.138C280.622 178.494 280.813 177.995 281.196 177.64C281.588 177.276 282.19 177.015 283.002 176.856L285.564 176.366C285.564 175.787 285.429 175.358 285.158 175.078C284.887 174.789 284.486 174.644 283.954 174.644C283.478 174.644 283.105 174.751 282.834 174.966C282.563 175.171 282.377 175.479 282.274 175.89L280.748 175.792C280.888 175.045 281.233 174.457 281.784 174.028C282.344 173.599 283.067 173.384 283.954 173.384C284.962 173.384 285.727 173.655 286.25 174.196C286.782 174.728 287.048 175.479 287.048 176.45V179.348C287.048 179.525 287.076 179.651 287.132 179.726C287.197 179.791 287.3 179.824 287.44 179.824H287.706V181C287.659 181.009 287.585 181.019 287.482 181.028C287.379 181.037 287.272 181.042 287.16 181.042C286.843 181.042 286.567 180.991 286.334 180.888C286.11 180.785 285.942 180.617 285.83 180.384C285.718 180.141 285.662 179.819 285.662 179.418L285.816 179.488C285.741 179.815 285.578 180.104 285.326 180.356C285.083 180.608 284.771 180.809 284.388 180.958C284.015 181.098 283.609 181.168 283.17 181.168ZM283.408 179.992C283.856 179.992 284.239 179.908 284.556 179.74C284.873 179.563 285.121 179.32 285.298 179.012C285.475 178.704 285.564 178.354 285.564 177.962V177.486L283.38 177.906C282.932 177.99 282.615 178.125 282.428 178.312C282.251 178.489 282.162 178.718 282.162 178.998C282.162 179.315 282.269 179.563 282.484 179.74C282.708 179.908 283.016 179.992 283.408 179.992ZM290.487 181C290.002 181 289.61 180.874 289.311 180.622C289.013 180.37 288.863 179.969 288.863 179.418V171.06H290.347V179.278C290.347 179.446 290.389 179.572 290.473 179.656C290.567 179.74 290.697 179.782 290.865 179.782H291.453V181H290.487ZM292.852 183.1V181.882H293.762C294.014 181.882 294.2 181.845 294.322 181.77C294.443 181.695 294.536 181.569 294.602 181.392L294.84 180.776H294.378L291.69 173.552H293.258L295.302 179.404L297.248 173.552H298.83L295.862 181.868C295.712 182.297 295.488 182.61 295.19 182.806C294.9 183.002 294.494 183.1 293.972 183.1H292.852ZM302.657 181.168C301.957 181.168 301.365 181.061 300.879 180.846C300.403 180.631 300.035 180.337 299.773 179.964C299.512 179.581 299.363 179.143 299.325 178.648L300.851 178.578C300.926 178.989 301.103 179.315 301.383 179.558C301.663 179.801 302.088 179.922 302.657 179.922C303.124 179.922 303.493 179.847 303.763 179.698C304.034 179.549 304.169 179.311 304.169 178.984C304.169 178.807 304.123 178.657 304.029 178.536C303.945 178.405 303.777 178.298 303.525 178.214C303.273 178.121 302.9 178.032 302.405 177.948C301.668 177.808 301.089 177.645 300.669 177.458C300.249 177.271 299.951 177.033 299.773 176.744C299.596 176.455 299.507 176.105 299.507 175.694C299.507 175.013 299.759 174.457 300.263 174.028C300.777 173.599 301.514 173.384 302.475 173.384C303.119 173.384 303.661 173.496 304.099 173.72C304.538 173.935 304.879 174.229 305.121 174.602C305.373 174.966 305.532 175.377 305.597 175.834L304.071 175.918C304.025 175.657 303.931 175.433 303.791 175.246C303.661 175.05 303.483 174.901 303.259 174.798C303.035 174.686 302.769 174.63 302.461 174.63C301.985 174.63 301.631 174.723 301.397 174.91C301.164 175.097 301.047 175.339 301.047 175.638C301.047 175.862 301.099 176.044 301.201 176.184C301.313 176.324 301.491 176.441 301.733 176.534C301.976 176.618 302.298 176.693 302.699 176.758C303.474 176.889 304.081 177.052 304.519 177.248C304.958 177.435 305.266 177.668 305.443 177.948C305.621 178.228 305.709 178.569 305.709 178.97C305.709 179.437 305.579 179.833 305.317 180.16C305.056 180.487 304.697 180.739 304.239 180.916C303.782 181.084 303.255 181.168 302.657 181.168ZM310.277 181.168C309.549 181.168 308.919 181.009 308.387 180.692C307.864 180.375 307.458 179.922 307.169 179.334C306.889 178.746 306.749 178.06 306.749 177.276C306.749 176.492 306.889 175.811 307.169 175.232C307.458 174.644 307.864 174.191 308.387 173.874C308.91 173.547 309.526 173.384 310.235 173.384C310.907 173.384 311.5 173.543 312.013 173.86C312.526 174.168 312.923 174.616 313.203 175.204C313.492 175.792 313.637 176.501 313.637 177.332V177.71H308.289C308.326 178.438 308.518 178.984 308.863 179.348C309.218 179.712 309.694 179.894 310.291 179.894C310.73 179.894 311.094 179.791 311.383 179.586C311.672 179.381 311.873 179.105 311.985 178.76L313.525 178.858C313.329 179.549 312.942 180.109 312.363 180.538C311.794 180.958 311.098 181.168 310.277 181.168ZM308.289 176.59H312.069C312.022 175.927 311.831 175.437 311.495 175.12C311.168 174.803 310.748 174.644 310.235 174.644C309.703 174.644 309.264 174.812 308.919 175.148C308.583 175.475 308.373 175.955 308.289 176.59Z" fill="#09090B"/>
<path d="M322.59 174L326.59 178L330.59 174" stroke="#09090B" stroke-width="1.33333" stroke-linecap="round" stroke-linejoin="round"/>
<rect x="356.09" y="160.5" width="186.05" height="31" rx="5.5" fill="white"/>
<rect x="356.09" y="160.5" width="186.05" height="31" rx="5.5" stroke="#E4E4E7"/>
<path d="M373.923 169.333V172" stroke="#09090B" stroke-width="1.33333" stroke-linecap="round" stroke-linejoin="round"/>
<path d="M379.257 169.333V172" stroke="#09090B" stroke-width="1.33333" stroke-linecap="round" stroke-linejoin="round"/>
<path d="M381.257 170.667H371.923C371.187 170.667 370.59 171.264 370.59 172V181.333C370.59 182.07 371.187 182.667 371.923 182.667H381.257C381.993 182.667 382.59 182.07 382.59 181.333V172C382.59 171.264 381.993 170.667 381.257 170.667Z" stroke="#09090B" stroke-width="1.33333" stroke-linecap="round" stroke-linejoin="round"/>
<path d="M370.59 174.667H382.59" stroke="#09090B" stroke-width="1.33333" stroke-linecap="round" stroke-linejoin="round"/>
<path d="M390.309 181V171.06H393.501C395.059 171.06 396.259 171.494 397.099 172.362C397.939 173.221 398.359 174.448 398.359 176.044C398.359 177.631 397.943 178.853 397.113 179.712C396.291 180.571 395.115 181 393.585 181H390.309ZM391.821 179.614H393.501C394.602 179.614 395.423 179.32 395.965 178.732C396.515 178.135 396.791 177.239 396.791 176.044C396.791 174.831 396.515 173.93 395.965 173.342C395.423 172.745 394.602 172.446 393.501 172.446H391.821V179.614ZM402.221 181.168C401.446 181.168 400.826 180.991 400.359 180.636C399.902 180.281 399.673 179.782 399.673 179.138C399.673 178.494 399.864 177.995 400.247 177.64C400.639 177.276 401.241 177.015 402.053 176.856L404.615 176.366C404.615 175.787 404.48 175.358 404.209 175.078C403.938 174.789 403.537 174.644 403.005 174.644C402.529 174.644 402.156 174.751 401.885 174.966C401.614 175.171 401.428 175.479 401.325 175.89L399.799 175.792C399.939 175.045 400.284 174.457 400.835 174.028C401.395 173.599 402.118 173.384 403.005 173.384C404.013 173.384 404.778 173.655 405.301 174.196C405.833 174.728 406.099 175.479 406.099 176.45V179.348C406.099 179.525 406.127 179.651 406.183 179.726C406.248 179.791 406.351 179.824 406.491 179.824H406.757V181C406.71 181.009 406.636 181.019 406.533 181.028C406.43 181.037 406.323 181.042 406.211 181.042C405.894 181.042 405.618 180.991 405.385 180.888C405.161 180.785 404.993 180.617 404.881 180.384C404.769 180.141 404.713 179.819 404.713 179.418L404.867 179.488C404.792 179.815 404.629 180.104 404.377 180.356C404.134 180.608 403.822 180.809 403.439 180.958C403.066 181.098 402.66 181.168 402.221 181.168ZM402.459 179.992C402.907 179.992 403.29 179.908 403.607 179.74C403.924 179.563 404.172 179.32 404.349 179.012C404.526 178.704 404.615 178.354 404.615 177.962V177.486L402.431 177.906C401.983 177.99 401.666 178.125 401.479 178.312C401.302 178.489 401.213 178.718 401.213 178.998C401.213 179.315 401.32 179.563 401.535 179.74C401.759 179.908 402.067 179.992 402.459 179.992ZM410.483 181C409.774 181 409.251 180.837 408.915 180.51C408.579 180.183 408.411 179.675 408.411 178.984V171.802H409.895V178.872C409.895 179.217 409.97 179.455 410.119 179.586C410.269 179.717 410.497 179.782 410.805 179.782H411.869V181H410.483ZM407.277 174.77V173.552H411.869V174.77H407.277ZM416.23 181.168C415.502 181.168 414.872 181.009 414.34 180.692C413.818 180.375 413.412 179.922 413.122 179.334C412.842 178.746 412.702 178.06 412.702 177.276C412.702 176.492 412.842 175.811 413.122 175.232C413.412 174.644 413.818 174.191 414.34 173.874C414.863 173.547 415.479 173.384 416.188 173.384C416.86 173.384 417.453 173.543 417.966 173.86C418.48 174.168 418.876 174.616 419.156 175.204C419.446 175.792 419.59 176.501 419.59 177.332V177.71H414.242C414.28 178.438 414.471 178.984 414.816 179.348C415.171 179.712 415.647 179.894 416.244 179.894C416.683 179.894 417.047 179.791 417.336 179.586C417.626 179.381 417.826 179.105 417.938 178.76L419.478 178.858C419.282 179.549 418.895 180.109 418.316 180.538C417.747 180.958 417.052 181.168 416.23 181.168ZM414.242 176.59H418.022C417.976 175.927 417.784 175.437 417.448 175.12C417.122 174.803 416.702 174.644 416.188 174.644C415.656 174.644 415.218 174.812 414.872 175.148C414.536 175.475 414.326 175.955 414.242 176.59ZM427.281 181.168C426.646 181.168 426.091 181.009 425.615 180.692C425.148 180.375 424.789 179.927 424.537 179.348C424.294 178.76 424.173 178.069 424.173 177.276C424.173 176.483 424.299 175.797 424.551 175.218C424.803 174.63 425.162 174.177 425.629 173.86C426.096 173.543 426.646 173.384 427.281 173.384C427.794 173.384 428.252 173.491 428.653 173.706C429.054 173.921 429.358 174.219 429.563 174.602V171.06H431.047V181H429.661L429.619 179.88C429.414 180.281 429.101 180.599 428.681 180.832C428.27 181.056 427.804 181.168 427.281 181.168ZM427.673 179.88C428.074 179.88 428.415 179.777 428.695 179.572C428.975 179.367 429.19 179.068 429.339 178.676C429.488 178.284 429.563 177.817 429.563 177.276C429.563 176.716 429.488 176.245 429.339 175.862C429.19 175.47 428.975 175.176 428.695 174.98C428.415 174.775 428.074 174.672 427.673 174.672C427.076 174.672 426.6 174.905 426.245 175.372C425.89 175.829 425.713 176.464 425.713 177.276C425.713 178.079 425.89 178.713 426.245 179.18C426.6 179.647 427.076 179.88 427.673 179.88ZM435.343 181.168C434.596 181.168 433.999 180.921 433.551 180.426C433.112 179.922 432.893 179.227 432.893 178.34V173.552H434.377V177.962C434.377 178.634 434.494 179.129 434.727 179.446C434.96 179.763 435.315 179.922 435.791 179.922C436.332 179.922 436.752 179.749 437.051 179.404C437.359 179.049 437.513 178.555 437.513 177.92V173.552H438.997V181H437.611L437.583 179.054L437.793 179.138C437.662 179.791 437.387 180.295 436.967 180.65C436.547 180.995 436.006 181.168 435.343 181.168ZM447.146 181.168C446.512 181.168 445.956 181.009 445.48 180.692C445.014 180.375 444.654 179.927 444.402 179.348C444.16 178.76 444.038 178.069 444.038 177.276C444.038 176.483 444.164 175.797 444.416 175.218C444.668 174.63 445.028 174.177 445.494 173.86C445.961 173.543 446.512 173.384 447.146 173.384C447.66 173.384 448.117 173.491 448.518 173.706C448.92 173.921 449.223 174.219 449.428 174.602V171.06H450.912V181H449.526L449.484 179.88C449.279 180.281 448.966 180.599 448.546 180.832C448.136 181.056 447.669 181.168 447.146 181.168ZM447.538 179.88C447.94 179.88 448.28 179.777 448.56 179.572C448.84 179.367 449.055 179.068 449.204 178.676C449.354 178.284 449.428 177.817 449.428 177.276C449.428 176.716 449.354 176.245 449.204 175.862C449.055 175.47 448.84 175.176 448.56 174.98C448.28 174.775 447.94 174.672 447.538 174.672C446.941 174.672 446.465 174.905 446.11 175.372C445.756 175.829 445.578 176.464 445.578 177.276C445.578 178.079 445.756 178.713 446.11 179.18C446.465 179.647 446.941 179.88 447.538 179.88ZM455.947 181.168C455.238 181.168 454.617 181.009 454.085 180.692C453.553 180.375 453.143 179.922 452.853 179.334C452.564 178.746 452.419 178.06 452.419 177.276C452.419 176.483 452.564 175.797 452.853 175.218C453.143 174.639 453.553 174.191 454.085 173.874C454.617 173.547 455.238 173.384 455.947 173.384C456.657 173.384 457.277 173.547 457.809 173.874C458.341 174.191 458.752 174.639 459.041 175.218C459.331 175.797 459.475 176.483 459.475 177.276C459.475 178.06 459.331 178.746 459.041 179.334C458.752 179.922 458.341 180.375 457.809 180.692C457.277 181.009 456.657 181.168 455.947 181.168ZM455.947 179.88C456.582 179.88 457.072 179.651 457.417 179.194C457.763 178.727 457.935 178.088 457.935 177.276C457.935 176.464 457.763 175.829 457.417 175.372C457.072 174.905 456.582 174.672 455.947 174.672C455.322 174.672 454.832 174.905 454.477 175.372C454.132 175.829 453.959 176.464 453.959 177.276C453.959 178.088 454.132 178.727 454.477 179.194C454.832 179.651 455.322 179.88 455.947 179.88ZM464.041 181.168C463.332 181.168 462.711 181.009 462.179 180.692C461.647 180.375 461.236 179.922 460.947 179.334C460.658 178.746 460.513 178.06 460.513 177.276C460.513 176.492 460.658 175.811 460.947 175.232C461.236 174.644 461.647 174.191 462.179 173.874C462.711 173.547 463.332 173.384 464.041 173.384C464.648 173.384 465.184 173.491 465.651 173.706C466.127 173.911 466.51 174.215 466.799 174.616C467.098 175.017 467.289 175.507 467.373 176.086L465.819 176.17C465.744 175.685 465.548 175.316 465.231 175.064C464.914 174.803 464.517 174.672 464.041 174.672C463.416 174.672 462.926 174.905 462.571 175.372C462.226 175.829 462.053 176.464 462.053 177.276C462.053 178.088 462.226 178.727 462.571 179.194C462.926 179.651 463.416 179.88 464.041 179.88C464.517 179.88 464.914 179.749 465.231 179.488C465.548 179.217 465.744 178.811 465.819 178.27L467.373 178.354C467.289 178.923 467.098 179.418 466.799 179.838C466.51 180.258 466.127 180.585 465.651 180.818C465.184 181.051 464.648 181.168 464.041 181.168ZM471.177 181.168C470.43 181.168 469.833 180.921 469.385 180.426C468.946 179.922 468.727 179.227 468.727 178.34V173.552H470.211V177.962C470.211 178.634 470.328 179.129 470.561 179.446C470.794 179.763 471.149 179.922 471.625 179.922C472.166 179.922 472.586 179.749 472.885 179.404C473.193 179.049 473.347 178.555 473.347 177.92V173.552H474.831V181H473.445L473.417 179.054L473.627 179.138C473.496 179.791 473.221 180.295 472.801 180.65C472.381 180.995 471.84 181.168 471.177 181.168ZM476.93 181V173.552H478.288L478.33 175.4L478.162 175.344C478.246 174.933 478.391 174.583 478.596 174.294C478.811 174.005 479.072 173.781 479.38 173.622C479.688 173.463 480.024 173.384 480.388 173.384C481.023 173.384 481.541 173.566 481.942 173.93C482.343 174.285 482.595 174.775 482.698 175.4H482.46C482.544 174.961 482.684 174.597 482.88 174.308C483.085 174.009 483.347 173.781 483.664 173.622C483.981 173.463 484.341 173.384 484.742 173.384C485.265 173.384 485.708 173.496 486.072 173.72C486.445 173.935 486.725 174.252 486.912 174.672C487.108 175.092 487.206 175.605 487.206 176.212V181H485.722V176.576C485.722 175.932 485.605 175.447 485.372 175.12C485.139 174.793 484.784 174.63 484.308 174.63C484 174.63 483.729 174.709 483.496 174.868C483.263 175.027 483.081 175.255 482.95 175.554C482.829 175.853 482.768 176.212 482.768 176.632V181H481.354V176.632C481.354 175.997 481.247 175.507 481.032 175.162C480.827 174.807 480.472 174.63 479.968 174.63C479.651 174.63 479.375 174.709 479.142 174.868C478.918 175.027 478.741 175.26 478.61 175.568C478.479 175.867 478.414 176.221 478.414 176.632V181H476.93ZM492.219 181.168C491.491 181.168 490.861 181.009 490.329 180.692C489.806 180.375 489.4 179.922 489.111 179.334C488.831 178.746 488.691 178.06 488.691 177.276C488.691 176.492 488.831 175.811 489.111 175.232C489.4 174.644 489.806 174.191 490.329 173.874C490.851 173.547 491.467 173.384 492.177 173.384C492.849 173.384 493.441 173.543 493.955 173.86C494.468 174.168 494.865 174.616 495.145 175.204C495.434 175.792 495.579 176.501 495.579 177.332V177.71H490.231C490.268 178.438 490.459 178.984 490.805 179.348C491.159 179.712 491.635 179.894 492.233 179.894C492.671 179.894 493.035 179.791 493.325 179.586C493.614 179.381 493.815 179.105 493.927 178.76L495.467 178.858C495.271 179.549 494.883 180.109 494.305 180.538C493.735 180.958 493.04 181.168 492.219 181.168ZM490.231 176.59H494.011C493.964 175.927 493.773 175.437 493.437 175.12C493.11 174.803 492.69 174.644 492.177 174.644C491.645 174.644 491.206 174.812 490.861 175.148C490.525 175.475 490.315 175.955 490.231 176.59ZM497.082 181V173.552H498.44L498.496 175.54L498.314 175.442C498.398 174.957 498.557 174.565 498.79 174.266C499.024 173.967 499.308 173.748 499.644 173.608C499.98 173.459 500.344 173.384 500.736 173.384C501.296 173.384 501.758 173.51 502.122 173.762C502.496 174.005 502.776 174.341 502.962 174.77C503.158 175.19 503.256 175.671 503.256 176.212V181H501.772V176.66C501.772 176.221 501.726 175.853 501.632 175.554C501.539 175.255 501.385 175.027 501.17 174.868C500.956 174.709 500.676 174.63 500.33 174.63C499.808 174.63 499.383 174.803 499.056 175.148C498.73 175.493 498.566 175.997 498.566 176.66V181H497.082ZM507.677 181C506.967 181 506.445 180.837 506.109 180.51C505.773 180.183 505.605 179.675 505.605 178.984V171.802H507.089V178.872C507.089 179.217 507.163 179.455 507.313 179.586C507.462 179.717 507.691 179.782 507.999 179.782H509.063V181H507.677ZM504.471 174.77V173.552H509.063V174.77H504.471Z" fill="#09090B"/>
<rect x="186.61" y="198.5" width="143.56" height="31" rx="5.5" fill="white"/>
<rect x="186.61" y="198.5" width="143.56" height="31" rx="5.5" stroke="#E4E4E7"/>
<path d="M211.11 207.333H203.11C202.374 207.333 201.777 207.93 201.777 208.667V219.333C201.777 220.07 202.374 220.667 203.11 220.667H211.11C211.846 220.667 212.443 220.07 212.443 219.333V208.667C212.443 207.93 211.846 207.333 211.11 207.333Z" stroke="#09090B" stroke-width="1.33333" stroke-linecap="round" stroke-linejoin="round"/>
<path d="M205.11 220.667V218H209.11V220.667" stroke="#09090B" stroke-width="1.33333" stroke-linecap="round" stroke-linejoin="round"/>
<path d="M204.443 210H204.45" stroke="#09090B" stroke-width="1.33333" stroke-linecap="round" stroke-linejoin="round"/>
<path d="M209.777 210H209.783" stroke="#09090B" stroke-width="1.33333" stroke-linecap="round" stroke-linejoin="round"/>
<path d="M207.11 210H207.117" stroke="#09090B" stroke-width="1.33333" stroke-linecap="round" stroke-linejoin="round"/>
<path d="M207.11 212.667H207.117" stroke="#09090B" stroke-width="1.33333" stroke-linecap="round" stroke-linejoin="round"/>
<path d="M207.11 215.333H207.117" stroke="#09090B" stroke-width="1.33333" stroke-linecap="round" stroke-linejoin="round"/>
<path d="M209.777 212.667H209.783" stroke="#09090B" stroke-width="1.33333" stroke-linecap="round" stroke-linejoin="round"/>
<path d="M209.777 215.333H209.783" stroke="#09090B" stroke-width="1.33333" stroke-linecap="round" stroke-linejoin="round"/>
<path d="M204.443 212.667H204.45" stroke="#09090B" stroke-width="1.33333" stroke-linecap="round" stroke-linejoin="round"/>
<path d="M204.443 215.333H204.45" stroke="#09090B" stroke-width="1.33333" stroke-linecap="round" stroke-linejoin="round"/>
<path d="M221.104 219V209.06H227.558V210.446H221.818L222.616 209.62V214.184L221.818 213.47H227.306V214.814H221.818L222.616 214.1V219H221.104ZM231.946 219.168C231.237 219.168 230.616 219.009 230.084 218.692C229.552 218.375 229.141 217.922 228.852 217.334C228.563 216.746 228.418 216.06 228.418 215.276C228.418 214.483 228.563 213.797 228.852 213.218C229.141 212.639 229.552 212.191 230.084 211.874C230.616 211.547 231.237 211.384 231.946 211.384C232.655 211.384 233.276 211.547 233.808 211.874C234.34 212.191 234.751 212.639 235.04 213.218C235.329 213.797 235.474 214.483 235.474 215.276C235.474 216.06 235.329 216.746 235.04 217.334C234.751 217.922 234.34 218.375 233.808 218.692C233.276 219.009 232.655 219.168 231.946 219.168ZM231.946 217.88C232.581 217.88 233.071 217.651 233.416 217.194C233.761 216.727 233.934 216.088 233.934 215.276C233.934 214.464 233.761 213.829 233.416 213.372C233.071 212.905 232.581 212.672 231.946 212.672C231.321 212.672 230.831 212.905 230.476 213.372C230.131 213.829 229.958 214.464 229.958 215.276C229.958 216.088 230.131 216.727 230.476 217.194C230.831 217.651 231.321 217.88 231.946 217.88ZM239.424 219.168C238.677 219.168 238.08 218.921 237.632 218.426C237.193 217.922 236.974 217.227 236.974 216.34V211.552H238.458V215.962C238.458 216.634 238.574 217.129 238.808 217.446C239.041 217.763 239.396 217.922 239.872 217.922C240.413 217.922 240.833 217.749 241.132 217.404C241.44 217.049 241.594 216.555 241.594 215.92V211.552H243.078V219H241.692L241.664 217.054L241.874 217.138C241.743 217.791 241.468 218.295 241.048 218.65C240.628 218.995 240.086 219.168 239.424 219.168ZM245.177 219V211.552H246.535L246.591 213.526L246.465 213.484C246.567 212.812 246.773 212.322 247.081 212.014C247.398 211.706 247.823 211.552 248.355 211.552H249.069V212.882H248.355C247.981 212.882 247.669 212.943 247.417 213.064C247.165 213.185 246.973 213.372 246.843 213.624C246.721 213.876 246.661 214.203 246.661 214.604V219H245.177ZM250.181 219V211.552H251.539L251.595 213.54L251.413 213.442C251.497 212.957 251.655 212.565 251.889 212.266C252.122 211.967 252.407 211.748 252.743 211.608C253.079 211.459 253.443 211.384 253.835 211.384C254.395 211.384 254.857 211.51 255.221 211.762C255.594 212.005 255.874 212.341 256.061 212.77C256.257 213.19 256.355 213.671 256.355 214.212V219H254.871V214.66C254.871 214.221 254.824 213.853 254.731 213.554C254.637 213.255 254.483 213.027 254.269 212.868C254.054 212.709 253.774 212.63 253.429 212.63C252.906 212.63 252.481 212.803 252.155 213.148C251.828 213.493 251.665 213.997 251.665 214.66V219H250.181ZM258.315 219V211.552H259.799V219H258.315ZM258.287 210.474V208.99H259.827V210.474H258.287ZM264.631 219.168C263.931 219.168 263.338 219.061 262.853 218.846C262.377 218.631 262.008 218.337 261.747 217.964C261.485 217.581 261.336 217.143 261.299 216.648L262.825 216.578C262.899 216.989 263.077 217.315 263.357 217.558C263.637 217.801 264.061 217.922 264.631 217.922C265.097 217.922 265.466 217.847 265.737 217.698C266.007 217.549 266.143 217.311 266.143 216.984C266.143 216.807 266.096 216.657 266.003 216.536C265.919 216.405 265.751 216.298 265.499 216.214C265.247 216.121 264.873 216.032 264.379 215.948C263.641 215.808 263.063 215.645 262.643 215.458C262.223 215.271 261.924 215.033 261.747 214.744C261.569 214.455 261.481 214.105 261.481 213.694C261.481 213.013 261.733 212.457 262.237 212.028C262.75 211.599 263.487 211.384 264.449 211.384C265.093 211.384 265.634 211.496 266.073 211.72C266.511 211.935 266.852 212.229 267.095 212.602C267.347 212.966 267.505 213.377 267.571 213.834L266.045 213.918C265.998 213.657 265.905 213.433 265.765 213.246C265.634 213.05 265.457 212.901 265.233 212.798C265.009 212.686 264.743 212.63 264.435 212.63C263.959 212.63 263.604 212.723 263.371 212.91C263.137 213.097 263.021 213.339 263.021 213.638C263.021 213.862 263.072 214.044 263.175 214.184C263.287 214.324 263.464 214.441 263.707 214.534C263.949 214.618 264.271 214.693 264.673 214.758C265.447 214.889 266.054 215.052 266.493 215.248C266.931 215.435 267.239 215.668 267.417 215.948C267.594 216.228 267.683 216.569 267.683 216.97C267.683 217.437 267.552 217.833 267.291 218.16C267.029 218.487 266.67 218.739 266.213 218.916C265.755 219.084 265.228 219.168 264.631 219.168ZM272.055 219.168C271.355 219.168 270.762 219.061 270.277 218.846C269.801 218.631 269.432 218.337 269.171 217.964C268.909 217.581 268.76 217.143 268.723 216.648L270.249 216.578C270.323 216.989 270.501 217.315 270.781 217.558C271.061 217.801 271.485 217.922 272.055 217.922C272.521 217.922 272.89 217.847 273.161 217.698C273.431 217.549 273.567 217.311 273.567 216.984C273.567 216.807 273.52 216.657 273.427 216.536C273.343 216.405 273.175 216.298 272.923 216.214C272.671 216.121 272.297 216.032 271.803 215.948C271.065 215.808 270.487 215.645 270.067 215.458C269.647 215.271 269.348 215.033 269.171 214.744C268.993 214.455 268.905 214.105 268.905 213.694C268.905 213.013 269.157 212.457 269.661 212.028C270.174 211.599 270.911 211.384 271.873 211.384C272.517 211.384 273.058 211.496 273.497 211.72C273.935 211.935 274.276 212.229 274.519 212.602C274.771 212.966 274.929 213.377 274.995 213.834L273.469 213.918C273.422 213.657 273.329 213.433 273.189 213.246C273.058 213.05 272.881 212.901 272.657 212.798C272.433 212.686 272.167 212.63 271.859 212.63C271.383 212.63 271.028 212.723 270.795 212.91C270.561 213.097 270.445 213.339 270.445 213.638C270.445 213.862 270.496 214.044 270.599 214.184C270.711 214.324 270.888 214.441 271.131 214.534C271.373 214.618 271.695 214.693 272.097 214.758C272.871 214.889 273.478 215.052 273.917 215.248C274.355 215.435 274.663 215.668 274.841 215.948C275.018 216.228 275.107 216.569 275.107 216.97C275.107 217.437 274.976 217.833 274.715 218.16C274.453 218.487 274.094 218.739 273.637 218.916C273.179 219.084 272.652 219.168 272.055 219.168ZM279.674 219.168C278.946 219.168 278.316 219.009 277.784 218.692C277.262 218.375 276.856 217.922 276.566 217.334C276.286 216.746 276.146 216.06 276.146 215.276C276.146 214.492 276.286 213.811 276.566 213.232C276.856 212.644 277.262 212.191 277.784 211.874C278.307 211.547 278.923 211.384 279.632 211.384C280.304 211.384 280.897 211.543 281.41 211.86C281.924 212.168 282.32 212.616 282.6 213.204C282.89 213.792 283.034 214.501 283.034 215.332V215.71H277.686C277.724 216.438 277.915 216.984 278.26 217.348C278.615 217.712 279.091 217.894 279.688 217.894C280.127 217.894 280.491 217.791 280.78 217.586C281.07 217.381 281.27 217.105 281.382 216.76L282.922 216.858C282.726 217.549 282.339 218.109 281.76 218.538C281.191 218.958 280.496 219.168 279.674 219.168ZM277.686 214.59H281.466C281.42 213.927 281.228 213.437 280.892 213.12C280.566 212.803 280.146 212.644 279.632 212.644C279.1 212.644 278.662 212.812 278.316 213.148C277.98 213.475 277.77 213.955 277.686 214.59ZM286.988 219.168C286.241 219.168 285.644 218.921 285.196 218.426C284.757 217.922 284.538 217.227 284.538 216.34V211.552H286.022V215.962C286.022 216.634 286.139 217.129 286.372 217.446C286.605 217.763 286.96 217.922 287.436 217.922C287.977 217.922 288.397 217.749 288.696 217.404C289.004 217.049 289.158 216.555 289.158 215.92V211.552H290.642V219H289.256L289.228 217.054L289.438 217.138C289.307 217.791 289.032 218.295 288.612 218.65C288.192 218.995 287.651 219.168 286.988 219.168ZM292.741 219V211.552H294.099L294.155 213.526L294.029 213.484C294.132 212.812 294.337 212.322 294.645 212.014C294.963 211.706 295.387 211.552 295.919 211.552H296.633V212.882H295.919C295.546 212.882 295.233 212.943 294.981 213.064C294.729 213.185 294.538 213.372 294.407 213.624C294.286 213.876 294.225 214.203 294.225 214.604V219H292.741Z" fill="#09090B"/>
<path d="M305.67 212L309.67 216L313.67 212" stroke="#09090B" stroke-width="1.33333" stroke-linecap="round" stroke-linejoin="round"/>
<rect x="339.17" y="198.5" width="104.31" height="31" rx="5.5" fill="white"/>
<rect x="339.17" y="198.5" width="104.31" height="31" rx="5.5" stroke="#E4E4E7"/>
<path d="M364.337 220V218.667C364.337 217.959 364.056 217.281 363.556 216.781C363.055 216.281 362.377 216 361.67 216H357.67C356.963 216 356.284 216.281 355.784 216.781C355.284 217.281 355.003 217.959 355.003 218.667V220" stroke="#09090B" stroke-width="1.33333" stroke-linecap="round" stroke-linejoin="round"/>
<path d="M359.67 213.333C361.143 213.333 362.337 212.139 362.337 210.667C362.337 209.194 361.143 208 359.67 208C358.197 208 357.003 209.194 357.003 210.667C357.003 212.139 358.197 213.333 359.67 213.333Z" stroke="#09090B" stroke-width="1.33333" stroke-linecap="round" stroke-linejoin="round"/>
<path d="M377.373 219.224C376.477 219.224 375.688 219.019 375.007 218.608C374.326 218.188 373.794 217.591 373.411 216.816C373.028 216.041 372.837 215.117 372.837 214.044C372.837 212.98 373.024 212.061 373.397 211.286C373.78 210.502 374.312 209.9 374.993 209.48C375.674 209.051 376.472 208.836 377.387 208.836C378.619 208.836 379.576 209.144 380.257 209.76C380.938 210.376 381.382 211.23 381.587 212.322L380.005 212.406C379.874 211.725 379.594 211.193 379.165 210.81C378.736 210.418 378.143 210.222 377.387 210.222C376.78 210.222 376.253 210.376 375.805 210.684C375.366 210.992 375.021 211.431 374.769 212C374.526 212.569 374.405 213.251 374.405 214.044C374.405 214.837 374.526 215.519 374.769 216.088C375.021 216.657 375.371 217.091 375.819 217.39C376.267 217.689 376.785 217.838 377.373 217.838C378.176 217.838 378.796 217.628 379.235 217.208C379.683 216.779 379.963 216.191 380.075 215.444L381.657 215.528C381.536 216.284 381.293 216.937 380.929 217.488C380.565 218.039 380.084 218.468 379.487 218.776C378.89 219.075 378.185 219.224 377.373 219.224ZM384.725 219C384.24 219 383.848 218.874 383.549 218.622C383.251 218.37 383.101 217.969 383.101 217.418V209.06H384.585V217.278C384.585 217.446 384.627 217.572 384.711 217.656C384.805 217.74 384.935 217.782 385.103 217.782H385.691V219H384.725ZM386.943 219V211.552H388.427V219H386.943ZM386.915 210.474V208.99H388.455V210.474H386.915ZM393.454 219.168C392.726 219.168 392.096 219.009 391.564 218.692C391.042 218.375 390.636 217.922 390.346 217.334C390.066 216.746 389.926 216.06 389.926 215.276C389.926 214.492 390.066 213.811 390.346 213.232C390.636 212.644 391.042 212.191 391.564 211.874C392.087 211.547 392.703 211.384 393.412 211.384C394.084 211.384 394.677 211.543 395.19 211.86C395.704 212.168 396.1 212.616 396.38 213.204C396.67 213.792 396.814 214.501 396.814 215.332V215.71H391.466C391.504 216.438 391.695 216.984 392.04 217.348C392.395 217.712 392.871 217.894 393.468 217.894C393.907 217.894 394.271 217.791 394.56 217.586C394.85 217.381 395.05 217.105 395.162 216.76L396.702 216.858C396.506 217.549 396.119 218.109 395.54 218.538C394.971 218.958 394.276 219.168 393.454 219.168ZM391.466 214.59H395.246C395.2 213.927 395.008 213.437 394.672 213.12C394.346 212.803 393.926 212.644 393.412 212.644C392.88 212.644 392.442 212.812 392.096 213.148C391.76 213.475 391.55 213.955 391.466 214.59ZM398.318 219V211.552H399.676L399.732 213.54L399.55 213.442C399.634 212.957 399.793 212.565 400.026 212.266C400.259 211.967 400.544 211.748 400.88 211.608C401.216 211.459 401.58 211.384 401.972 211.384C402.532 211.384 402.994 211.51 403.358 211.762C403.731 212.005 404.011 212.341 404.198 212.77C404.394 213.19 404.492 213.671 404.492 214.212V219H403.008V214.66C403.008 214.221 402.961 213.853 402.868 213.554C402.775 213.255 402.621 213.027 402.406 212.868C402.191 212.709 401.911 212.63 401.566 212.63C401.043 212.63 400.619 212.803 400.292 213.148C399.965 213.493 399.802 213.997 399.802 214.66V219H398.318ZM408.912 219C408.203 219 407.68 218.837 407.344 218.51C407.008 218.183 406.84 217.675 406.84 216.984V209.802H408.324V216.872C408.324 217.217 408.399 217.455 408.548 217.586C408.698 217.717 408.926 217.782 409.234 217.782H410.298V219H408.912ZM405.706 212.77V211.552H410.298V212.77H405.706Z" fill="#09090B"/>
<path d="M418.98 212L422.98 216L426.98 212" stroke="#09090B" stroke-width="1.33333" stroke-linecap="round" stroke-linejoin="round"/>
</g>
</g>
<defs>
<filter id="filter0_d_72_1038" x="26" y="86" width="731" height="305" filterUnits="userSpaceOnUse" color-interpolation-filters="sRGB">
<feFlood flood-opacity="0" result="BackgroundImageFix"/>
<feColorMatrix in="SourceAlpha" type="matrix" values="0 0 0 0 0 0 0 0 0 0 0 0 0 0 0 0 0 0 127 0" result="hardAlpha"/>
<feOffset dy="1"/>
<feGaussianBlur stdDeviation="1"/>
<feComposite in2="hardAlpha" operator="out"/>
<feColorMatrix type="matrix" values="0 0 0 0 0 0 0 0 0 0 0 0 0 0 0 0 0 0 0.05 0"/>
<feBlend mode="normal" in2="BackgroundImageFix" result="effect1_dropShadow_72_1038"/>
<feBlend mode="normal" in="SourceGraphic" in2="effect1_dropShadow_72_1038" result="shape"/>
</filter>
<clipPath id="clip0_72_1038">
<rect width="480" height="474.41" rx="22" fill="white"/>
</clipPath>
<clipPath id="clip1_72_1038">
<rect x="45" y="104" width="577.34" height="40" rx="6" fill="white"/>
</clipPath>
</defs>
</svg>
